<?xml version="1.0" encoding="UTF-8"?>
<svg xmlns="http://www.w3.org/2000/svg" style="stroke-dasharray:none; shape-rendering:auto; font-family:'Arial'; text-rendering:auto; fill-opacity:1; color-interpolation:auto; color-rendering:auto; font-size:12; fill:black; stroke:black; image-rendering:auto; stroke-miterlimit:10; stroke-linecap:square; stroke-linejoin:miter; font-style:normal; stroke-width:1; stroke-dashoffset:0; font-weight:normal; stroke-opacity:1;" contentScriptType="text/ecmascript" preserveAspectRatio="xMidYMid meet" zoomAndPan="magnify" version="1.0" contentStyleType="text/css" xml:xlink="http://www.w3.org/1999/xlink" width="2221" height="461"><rect x="10" y="10" width="2211" height="451" ry="0" rx="0" style="stroke:#000000; fill:#FFFFFF" /><rect x="40" y="310" width="2181" height="151" ry="0" rx="0" style="stroke:#000000; fill:#82B0B7" /><g componentSequence="4"><text x="-385" y="47" transform="rotate(270)" text-anchor="middle" style="font-weight:bold;font-size:10px;stroke:none; fill:#434343"><tspan dy="14" x="-385">Fim</tspan></text></g><rect x="40" y="160" width="2181" height="150" ry="0" rx="0" style="stroke:#000000; fill:#9F9F9F" /><g componentSequence="3"><text x="-235" y="47" transform="rotate(270)" text-anchor="middle" style="font-weight:bold;font-size:10px;stroke:none; fill:#434343"><tspan dy="14" x="-235">Início</tspan></text></g><rect x="40" y="10" width="2181" height="150" ry="0" rx="0" style="stroke:#000000; fill:#C0C0C0" /><g componentSequence="2"><text x="-85" y="47" transform="rotate(270)" text-anchor="middle" style="font-weight:bold;font-size:10px;stroke:none; fill:#434343"><tspan dy="14" x="-85">Processo</tspan></text></g><g componentSequence="1"><text x="-235" y="17" transform="rotate(270)" text-anchor="middle" style="font-weight:bold;font-size:10px;stroke:none; fill:#434343"><tspan dy="14" x="-235">Pool</tspan></text></g><g sequence="8"><ellipse cx="317" cy="86" rx="17" ry="17" stroke-width="1" style="fill:url(#linearGradient66FF6696FF96B6FFB6_843761867);" stroke="336633" /></g><g sequence="10"><rect x="270" y="202" width="106" height="70" ry="5" rx="5" style="fill:url(#linearGradientF8FBFEEDF5FCDEEDFAD4E7F8E2E5E9_1015886066);" stroke="191970" /></g><g componentSequence="10"><text x="323" y="217" text-anchor="middle" style="font-weight:bold;font-size:10px;stroke:none; fill:#333399"><tspan dy="14" x="323">Aprovação</tspan><tspan dy="14" x="323">Encarregado</tspan></text></g><g sequence="11"><rect x="550" y="202" width="106" height="70" ry="5" rx="5" style="fill:url(#linearGradientF8FBFEEDF5FCDEEDFAD4E7F8E2E5E9_951231419);" stroke="191970" /></g><g componentSequence="11"><text x="603" y="217" text-anchor="middle" style="font-weight:bold;font-size:10px;stroke:none; fill:#333399"><tspan dy="14" x="603">Aprovação</tspan><tspan dy="14" x="603">Engenheiro</tspan></text></g><g sequence="12"><rect x="840" y="209" width="106" height="56" ry="5" rx="5" style="fill:url(#linearGradientF8FBFEEDF5FCDEEDFAD4E7F8E2E5E9_2108701385);" stroke="191970" /></g><g componentSequence="12"><text x="893" y="226" text-anchor="middle" style="font-weight:bold;font-size:10px;stroke:none; fill:#333399"><tspan dy="14" x="893">Aprovação R.H.</tspan></text></g><g sequence="13"><rect x="1100" y="195" width="106" height="84" ry="5" rx="5" style="fill:url(#linearGradientF8FBFEEDF5FCDEEDFAD4E7F8E2E5E9_433633572);" stroke="191970" /></g><g componentSequence="13"><text x="1153" y="210" text-anchor="middle" style="font-weight:bold;font-size:10px;stroke:none; fill:#333399"><tspan dy="14" x="1153">Aprovação</tspan><tspan dy="14" x="1153">Coordenação</tspan><tspan dy="14" x="1153">Engenharia</tspan></text></g><g sequence="14"><rect x="1410" y="209" width="106" height="56" ry="5" rx="5" style="fill:url(#linearGradientF8FBFEEDF5FCDEEDFAD4E7F8E2E5E9_1275527245);" stroke="191970" /></g><g componentSequence="14"><text x="1463" y="226" text-anchor="middle" style="font-weight:bold;font-size:10px;stroke:none; fill:#333399"><tspan dy="14" x="1463">Revisão do RH</tspan></text></g><g sequence="16"><ellipse cx="897" cy="427" rx="17" ry="17" stroke-width="3" style="fill:url(#linearGradientFF6666FF9696FFB6B6_1636162829);" stroke="993333" /></g><g sequence="32"><polygon points=" 430 216 460 186 490 216 460 246 430 216" style="fill:url(#linearGradientFAFBFCFFFFCC_497010054);" stroke="000000" /></g><g componentSequence="32"><text x="460" y="256" text-anchor="middle" style="font-weight:bold;font-size:10px;stroke:none; fill:#333399"><tspan dy="14" x="460">Respost</tspan><tspan dy="14" x="460">a do</tspan><tspan dy="14" x="460">Encar...</tspan></text></g><g sequence="36"><polygon points=" 730 216 760 186 790 216 760 246 730 216" style="fill:url(#linearGradientFAFBFCFFFFCC_1104301704);" stroke="000000" /></g><g componentSequence="36"><text x="760" y="256" text-anchor="middle" style="font-weight:bold;font-size:10px;stroke:none; fill:#333399"><tspan dy="14" x="760">Respost</tspan><tspan dy="14" x="760">a do</tspan><tspan dy="14" x="760">Engen...</tspan></text></g><g sequence="41"><polygon points=" 1000 216 1030 186 1060 216 1030 246 1000 216" style="fill:url(#linearGradientFAFBFCFFFFCC_899885975);" stroke="000000" /></g><g componentSequence="41"><text x="1030" y="256" text-anchor="middle" style="font-weight:bold;font-size:10px;stroke:none; fill:#333399"><tspan dy="14" x="1030">Respost</tspan><tspan dy="14" x="1030">a do RH</tspan></text></g><g sequence="45"><polygon points=" 1280 216 1310 186 1340 216 1310 246 1280 216" style="fill:url(#linearGradientFAFBFCFFFFCC_2055337371);" stroke="000000" /></g><g componentSequence="45"><text x="1310" y="256" text-anchor="middle" style="font-weight:bold;font-size:10px;stroke:none; fill:#333399"><tspan dy="14" x="1310">Respost</tspan><tspan dy="14" x="1310">a do</tspan><tspan dy="14" x="1310">coo...</tspan></text></g><g sequence="61"><rect x="270" y="386" width="106" height="70" ry="5" rx="5" style="fill:url(#linearGradientF8FBFEEDF5FCDEEDFAD4E7F8E2E5E9_433175736);" stroke="191970" /></g><g componentSequence="61"><text x="323" y="401" text-anchor="middle" style="font-weight:bold;font-size:10px;stroke:none; fill:#333399"><tspan dy="14" x="323">Solicitação de</tspan><tspan dy="14" x="323">Informação</tspan></text></g><g sequence="64"><rect x="550" y="353" width="106" height="70" ry="5" rx="5" style="fill:url(#linearGradientF8FBFEEDF5FCDEEDFAD4E7F8E2E5E9_1252263684);" stroke="191970" /></g><g componentSequence="64"><text x="603" y="368" text-anchor="middle" style="font-weight:bold;font-size:10px;stroke:none; fill:#333399"><tspan dy="14" x="603">Solicitação de</tspan><tspan dy="14" x="603">Informação</tspan></text></g><g sequence="67"><rect x="840" y="340" width="106" height="70" ry="5" rx="5" style="fill:url(#linearGradientF8FBFEEDF5FCDEEDFAD4E7F8E2E5E9_1719099988);" stroke="191970" /></g><g componentSequence="67"><text x="893" y="355" text-anchor="middle" style="font-weight:bold;font-size:10px;stroke:none; fill:#333399"><tspan dy="14" x="893">Solicitação de</tspan><tspan dy="14" x="893">Informação</tspan></text></g><g sequence="70"><rect x="1100" y="340" width="106" height="70" ry="5" rx="5" style="fill:url(#linearGradientF8FBFEEDF5FCDEEDFAD4E7F8E2E5E9_321875500);" stroke="191970" /></g><g componentSequence="70"><text x="1153" y="355" text-anchor="middle" style="font-weight:bold;font-size:10px;stroke:none; fill:#333399"><tspan dy="14" x="1153">Solicitação de</tspan><tspan dy="14" x="1153">Informação</tspan></text></g><g sequence="73"><rect x="1410" y="360" width="106" height="70" ry="5" rx="5" style="fill:url(#linearGradientF8FBFEEDF5FCDEEDFAD4E7F8E2E5E9_118432909);" stroke="191970" /></g><g componentSequence="73"><text x="1463" y="375" text-anchor="middle" style="font-weight:bold;font-size:10px;stroke:none; fill:#333399"><tspan dy="14" x="1463">Solicitação de</tspan><tspan dy="14" x="1463">Informação</tspan></text></g><g sequence="76"><ellipse cx="2057" cy="236" rx="17" ry="17" stroke-width="3" style="fill:url(#linearGradientFF6666FF9696FFB6B6_1845075791);" stroke="993333" /></g><g sequence="77"><rect x="1690" y="202" width="106" height="70" ry="5" rx="5" style="fill:url(#linearGradientF8FBFEEDF5FCDEEDFAD4E7F8E2E5E9_809579878);" stroke="191970" /></g><g componentSequence="77"><text x="1743" y="217" text-anchor="middle" style="font-weight:bold;font-size:10px;stroke:none; fill:#333399"><tspan dy="14" x="1743">Aprovação</tspan><tspan dy="14" x="1743">Diretoria</tspan></text></g><g sequence="79"><rect x="1680" y="380" width="106" height="70" ry="5" rx="5" style="fill:url(#linearGradientF8FBFEEDF5FCDEEDFAD4E7F8E2E5E9_1484223308);" stroke="191970" /></g><g componentSequence="79"><text x="1733" y="395" text-anchor="middle" style="font-weight:bold;font-size:10px;stroke:none; fill:#333399"><tspan dy="14" x="1733">Solicitação de</tspan><tspan dy="14" x="1733">Informação</tspan></text></g><g sequence="82"><polygon points=" 1910 209 1940 179 1970 209 1940 239 1910 209" style="fill:url(#linearGradientFAFBFCFFFFCC_639766403);" stroke="000000" /></g><g componentSequence="82"><text x="1940" y="249" text-anchor="middle" style="font-weight:bold;font-size:10px;stroke:none; fill:#333399"><tspan dy="14" x="1940">Respost</tspan><tspan dy="14" x="1940">a do</tspan><tspan dy="14" x="1940">Diretor</tspan></text></g><g sequence="85"><ellipse cx="1991" cy="410" rx="17" ry="17" stroke-width="3" style="fill:url(#linearGradientFF6666FF9696FFB6B6_125894639);" stroke="993333" /></g><g sequence="87"><polygon points=" 1580 216 1610 186 1640 216 1610 246 1580 216" style="fill:url(#linearGradientFAFBFCFFFFCC_1054019708);" stroke="000000" /></g><g componentSequence="87"><text x="1610" y="256" text-anchor="middle" style="font-weight:bold;font-size:10px;stroke:none; fill:#333399"><tspan dy="14" x="1610">Valida</tspan><tspan dy="14" x="1610">Aprovad</tspan><tspan dy="14" x="1610">or</tspan></text></g><g sequence="90"><ellipse cx="1597" cy="387" rx="17" ry="17" stroke-width="3" style="fill:url(#linearGradientFF6666FF9696FFB6B6_1566439929);" stroke="993333" /></g><rect x="130" y="40" width="105" height="55" ry="5" rx="5" style="stroke:none; fill:#FFFFE0" /><g componentSequence="7"><text x="140" y="53" text-anchor="left" style="font-weight:bold;font-size:10px;stroke:none; fill:#000000"><tspan dy="14" x="140">Start</tspan></text></g><path style="fill:none; stroke-width:1; stroke:#000000;" d="M150.0 40.0 L130.0 40.0 L130.0 95.0 L150.0 95.0" /><g componentSequence="33"><text x="413" y="241" style="font-size:10px;font-weight:none;stroke:none; fill:#333399" text-anchor="left" /></g><g componentSequence="34"><text x="530" y="241" style="font-size:10px;font-weight:none;stroke:none; fill:#333399" text-anchor="left" /></g><g componentSequence="37"><text x="703" y="241" style="font-size:10px;font-weight:none;stroke:none; fill:#333399" text-anchor="left" /></g><g componentSequence="38"><text x="825" y="241" style="font-size:10px;font-weight:none;stroke:none; fill:#333399" text-anchor="left" /></g><g componentSequence="42"><text x="983" y="237" style="font-size:10px;font-weight:none;stroke:none; fill:#333399" text-anchor="left" /></g><g componentSequence="43"><text x="1090" y="237" style="font-size:10px;font-weight:none;stroke:none; fill:#333399" text-anchor="left" /></g><g componentSequence="46"><text x="1253" y="241" style="font-size:10px;font-weight:none;stroke:none; fill:#333399" text-anchor="left" /></g><g componentSequence="47"><text x="1385" y="241" style="font-size:10px;font-weight:none;stroke:none; fill:#333399" text-anchor="left" /></g><g componentSequence="49"><text x="617" y="427" style="font-size:10px;font-weight:none;stroke:none; fill:#333399" text-anchor="left" /></g><g componentSequence="50"><text x="770" y="424" style="font-size:10px;font-weight:none;stroke:none; fill:#333399" text-anchor="left"><tspan dy="14" x="770">Finalizada e Reprovado</tspan></text></g><g componentSequence="51"><text x="1039" y="415" style="font-size:10px;font-weight:none;stroke:none; fill:#333399" text-anchor="left" /></g><g componentSequence="52"><text x="1185" y="427" style="font-size:10px;font-weight:none;stroke:none; fill:#333399" text-anchor="left" /></g><g componentSequence="56"><text x="330" y="153" style="font-size:10px;font-weight:none;stroke:none; fill:#333399" text-anchor="left" /></g><g componentSequence="62"><text x="299" y="328" style="font-size:10px;font-weight:none;stroke:none; fill:#333399" text-anchor="left" /></g><g componentSequence="63"><text x="363" y="329" style="font-size:10px;font-weight:none;stroke:none; fill:#333399" text-anchor="left" /></g><g componentSequence="65"><text x="584" y="312" style="font-size:10px;font-weight:none;stroke:none; fill:#333399" text-anchor="left" /></g><g componentSequence="66"><text x="632" y="312" style="font-size:10px;font-weight:none;stroke:none; fill:#333399" text-anchor="left" /></g><g componentSequence="68"><text x="875" y="302" style="font-size:10px;font-weight:none;stroke:none; fill:#333399" text-anchor="left" /></g><g componentSequence="69"><text x="931" y="302" style="font-size:10px;font-weight:none;stroke:none; fill:#333399" text-anchor="left" /></g><g componentSequence="71"><text x="1151" y="309" style="font-size:10px;font-weight:none;stroke:none; fill:#333399" text-anchor="left" /></g><g componentSequence="72"><text x="1187" y="310" style="font-size:10px;font-weight:none;stroke:none; fill:#333399" text-anchor="left" /></g><g componentSequence="74"><text x="1438" y="312" style="font-size:10px;font-weight:none;stroke:none; fill:#333399" text-anchor="left" /></g><g componentSequence="75"><text x="1506" y="311" style="font-size:10px;font-weight:none;stroke:none; fill:#333399" text-anchor="left" /></g><g componentSequence="80"><text x="1758" y="326" style="font-size:10px;font-weight:none;stroke:none; fill:#333399" text-anchor="left" /></g><g componentSequence="81"><text x="1719" y="324" style="font-size:10px;font-weight:none;stroke:none; fill:#333399" text-anchor="left" /></g><g componentSequence="83"><text x="1863" y="237" style="font-size:10px;font-weight:none;stroke:none; fill:#333399" text-anchor="left" /></g><g componentSequence="84"><text x="2015" y="236" style="font-size:10px;font-weight:none;stroke:none; fill:#333399" text-anchor="left"><tspan dy="14" x="2015">Reprovado</tspan></text></g><g componentSequence="86"><text x="1982" y="344" style="font-size:10px;font-weight:none;stroke:none; fill:#333399" text-anchor="left"><tspan dy="14" x="1982">Aprovado</tspan></text></g><g componentSequence="88"><text x="1558" y="241" style="font-size:10px;font-weight:none;stroke:none; fill:#333399" text-anchor="left" /></g><g componentSequence="89"><text x="1675" y="241" style="font-size:10px;font-weight:none;stroke:none; fill:#333399" text-anchor="left" /></g><g componentSequence="91"><text x="1611" y="336" style="font-size:10px;font-weight:none;stroke:none; fill:#333399" text-anchor="left"><tspan dy="14" x="1611">AProvado</tspan></text></g><g componentSequence="29"><text x="277" y="79" style="font-size:10px;font-weight:none;stroke:none; fill:#333399" text-anchor="left" /></g><path style="fill:none; stroke:#000000;stroke-width:1" d="M317.0 103.0 L321.0 201.0" /><polygon style="fill:#000000; stroke:#000000;" points=" 326 191 321 201 316 191 321 193" /><path style="fill:none; stroke:#000000;stroke-dasharray:2" d="M235.0 74.0 L300.0 84.0" /><path style="fill:none; stroke:#000000;stroke-width:1" d="M376.0 239.0 L429.0 242.0" /><polygon style="fill:#000000; stroke:#000000;" points=" 419 236 429 242 419 246 421 242" /><path style="fill:none; stroke:#000000;stroke-width:1" d="M309.0 272.0 L288.0 324.0 L310.0 385.0" /><polygon style="fill:#000000; stroke:#000000;" points=" 311 374 310 385 302 377 307 377" /><path style="fill:none; stroke:#000000;stroke-width:1" d="M334.0 385.0 L353.0 329.0 L334.0 272.0" /><polygon style="fill:#000000; stroke:#000000;" points=" 332 283 334 272 342 280 337 280" /><path style="fill:none; stroke:#000000;stroke-width:1" d="M656.0 239.0 L729.0 242.0" /><polygon style="fill:#000000; stroke:#000000;" points=" 719 237 729 242 719 247 721 242" /><path style="fill:none; stroke:#000000;stroke-width:1" d="M589.0 272.0 L574.0 311.0 L589.0 352.0" /><polygon style="fill:#000000; stroke:#000000;" points=" 590 341 589 352 581 344 586 344" /><path style="fill:none; stroke:#000000;stroke-width:1" d="M490.0 242.0 L549.0 239.0" /><polygon style="fill:#000000; stroke:#000000;" points=" 539 235 549 239 539 245 541 239" /><path style="fill:none; stroke:#000000;stroke-width:1" d="M613.0 352.0 L623.0 317.0 L612.0 272.0" /><polygon style="fill:#000000; stroke:#000000;" points=" 610 283 612 272 619 281 614 280" /><path style="fill:none; stroke:#000000;stroke-width:1" d="M946.0 237.0 L999.0 237.0" /><polygon style="fill:#000000; stroke:#000000;" points=" 989 232 999 237 989 242 991 237" /><path style="fill:none; stroke:#000000;stroke-width:1" d="M881.0 265.0 L863.0 308.0 L877.0 339.0" /><polygon style="fill:#000000; stroke:#000000;" points=" 877 328 877 339 868 332 874 332" /><path style="fill:none; stroke:#000000;stroke-width:1" d="M790.0 242.0 L839.0 240.0" /><polygon style="fill:#000000; stroke:#000000;" points=" 829 235 839 240 829 245 831 240" /><path style="fill:none; stroke:#000000;stroke-width:1" d="M909.0 339.0 L924.0 308.0 L905.0 265.0" /><polygon style="fill:#000000; stroke:#000000;" points=" 904 276 905 265 914 272 908 272" /><path style="fill:none; stroke:#000000;stroke-width:1" d="M1206.0 239.0 L1279.0 242.0" /><polygon style="fill:#000000; stroke:#000000;" points=" 1269 237 1279 242 1269 247 1271 242" /><path style="fill:none; stroke:#000000;stroke-width:1" d="M1146.0 279.0 L1139.0 319.0 L1144.0 339.0" /><polygon style="fill:#000000; stroke:#000000;" points=" 1146 328 1144 339 1137 331 1142 331" /><path style="fill:none; stroke:#000000;stroke-width:1" d="M1060.0 237.0 L1099.0 237.0" /><polygon style="fill:#000000; stroke:#000000;" points=" 1089 232 1099 237 1089 242 1091 237" /><path style="fill:none; stroke:#000000;stroke-width:1" d="M1175.0 339.0 L1183.0 326.0 L1167.0 279.0" /><polygon style="fill:#000000; stroke:#000000;" points=" 1165 290 1167 279 1175 287 1170 287" /><path style="fill:none; stroke:#000000;stroke-width:1" d="M1449.0 265.0 L1428.0 311.0 L1448.0 359.0" /><polygon style="fill:#000000; stroke:#000000;" points=" 1449 348 1448 359 1440 352 1445 352" /><path style="fill:none; stroke:#000000;stroke-width:1" d="M1516.0 239.0 L1579.0 242.0" /><polygon style="fill:#000000; stroke:#000000;" points=" 1569 237 1579 242 1569 247 1571 242" /><path style="fill:none; stroke:#000000;stroke-width:1" d="M1340.0 242.0 L1409.0 239.0" /><polygon style="fill:#000000; stroke:#000000;" points=" 1399 234 1409 239 1399 244 1401 239" /><path style="fill:none; stroke:#000000;stroke-width:1" d="M1477.0 359.0 L1496.0 311.0 L1475.0 265.0" /><polygon style="fill:#000000; stroke:#000000;" points=" 1475 276 1475 265 1484 272 1478 272" /><path style="fill:none; stroke:#000000;stroke-width:1" d="M459.0 302.0 L459.0 427.0 L879.0 427.0" /><polygon style="fill:#000000; stroke:#000000;" points=" 869 422 879 427 869 432 871 427" /><path style="fill:none; stroke:#000000;stroke-width:1" d="M760.0 302.0 L760.0 427.0 L879.0 427.0" /><polygon style="fill:#000000; stroke:#000000;" points=" 869 422 879 427 869 432 871 427" /><path style="fill:none; stroke:#000000;stroke-width:1" d="M1029.0 288.0 L1029.0 427.0 L915.0 427.0" /><polygon style="fill:#000000; stroke:#000000;" points=" 925 432 915 427 925 422 923 427" /><path style="fill:none; stroke:#000000;stroke-width:1" d="M1310.0 302.0 L1310.0 427.0 L915.0 427.0" /><polygon style="fill:#000000; stroke:#000000;" points=" 925 432 915 427 925 422 923 427" /><path style="fill:none; stroke:#000000;stroke-width:1" d="M1970.0 236.0 L2040.0 236.0" /><polygon style="fill:#000000; stroke:#000000;" points=" 2030 231 2040 236 2030 241 2032 236" /><path style="fill:none; stroke:#000000;stroke-width:1" d="M1745.0 272.0 L1748.0 328.0 L1739.0 379.0" /><polygon style="fill:#000000; stroke:#000000;" points=" 1746 370 1739 379 1736 368 1740 371" /><path style="fill:none; stroke:#000000;stroke-width:1" d="M1796.0 237.0 L1909.0 237.0" /><polygon style="fill:#000000; stroke:#000000;" points=" 1899 232 1909 237 1899 242 1901 237" /><path style="fill:none; stroke:#000000;stroke-width:1" d="M1723.0 379.0 L1708.0 321.0 L1728.0 272.0" /><polygon style="fill:#000000; stroke:#000000;" points=" 1720 279 1728 272 1729 283 1725 279" /><path style="fill:none; stroke:#000000;stroke-width:1" d="M1640.0 242.0 L1689.0 240.0" /><polygon style="fill:#000000; stroke:#000000;" points=" 1679 235 1689 240 1679 245 1681 240" /><path style="fill:none; stroke:#000000;stroke-width:1" d="M1957.0 295.0 L1986.0 393.0" /><polygon style="fill:#000000; stroke:#000000;" points=" 1988 382 1986 393 1978 385 1984 385" /><path style="fill:none; stroke:#000000;stroke-width:1" d="M1604.0 302.0 L1598.0 370.0" /><polygon style="fill:#000000; stroke:#000000;" points=" 1604 360 1598 370 1594 360 1599 362" /><defs><linearGradient xmlns:xlink="http://www.w3.org/1999/xlink" xlink:href="#linearGradient66FF6696FF96B6FFB6" id="linearGradient66FF6696FF96B6FFB6_843761867" x1="0" y1="69.0" x2="0" y2="104.0" gradientUnits="userSpaceOnUse" xlink:type="simple" xlink:actuate="onLoad" xlink:show="other" /><linearGradient id="linearGradient66FF6696FF96B6FFB6"><stop style="stop-color:#66FF66;stop-opacity:1;" offset="0.0" id="stop66FF66" /><stop style="stop-color:#96FF96;stop-opacity:1;" offset="0.5" id="stop96FF96" /><stop style="stop-color:#B6FFB6;stop-opacity:1;" offset="1.0" id="stopB6FFB6" /></linearGradient><linearGradient xmlns:xlink="http://www.w3.org/1999/xlink" xlink:href="#linearGradientF8FBFEEDF5FCDEEDFAD4E7F8E2E5E9" id="linearGradientF8FBFEEDF5FCDEEDFAD4E7F8E2E5E9_1015886066" x1="0" y1="202.0" x2="0" y2="308.0" gradientUnits="userSpaceOnUse" xlink:type="simple" xlink:actuate="onLoad" xlink:show="other" /><linearGradient id="linearGradientF8FBFEEDF5FCDEEDFAD4E7F8E2E5E9"><stop style="stop-color:#F8FBFE;stop-opacity:1;" offset="0.0" id="stopF8FBFE" /><stop style="stop-color:#EDF5FC;stop-opacity:1;" offset="0.25" id="stopEDF5FC" /><stop style="stop-color:#DEEDFA;stop-opacity:1;" offset="0.5" id="stopDEEDFA" /><stop style="stop-color:#D4E7F8;stop-opacity:1;" offset="0.75" id="stopD4E7F8" /><stop style="stop-color:#E2E5E9;stop-opacity:1;" offset="1.0" id="stopE2E5E9" /></linearGradient><linearGradient xmlns:xlink="http://www.w3.org/1999/xlink" xlink:href="#linearGradientF8FBFEEDF5FCDEEDFAD4E7F8E2E5E9" id="linearGradientF8FBFEEDF5FCDEEDFAD4E7F8E2E5E9_951231419" x1="0" y1="202.0" x2="0" y2="308.0" gradientUnits="userSpaceOnUse" xlink:type="simple" xlink:actuate="onLoad" xlink:show="other" /><linearGradient xmlns:xlink="http://www.w3.org/1999/xlink" xlink:href="#linearGradientF8FBFEEDF5FCDEEDFAD4E7F8E2E5E9" id="linearGradientF8FBFEEDF5FCDEEDFAD4E7F8E2E5E9_2108701385" x1="0" y1="209.0" x2="0" y2="315.0" gradientUnits="userSpaceOnUse" xlink:type="simple" xlink:actuate="onLoad" xlink:show="other" /><linearGradient xmlns:xlink="http://www.w3.org/1999/xlink" xlink:href="#linearGradientF8FBFEEDF5FCDEEDFAD4E7F8E2E5E9" id="linearGradientF8FBFEEDF5FCDEEDFAD4E7F8E2E5E9_433633572" x1="0" y1="195.0" x2="0" y2="301.0" gradientUnits="userSpaceOnUse" xlink:type="simple" xlink:actuate="onLoad" xlink:show="other" /><linearGradient xmlns:xlink="http://www.w3.org/1999/xlink" xlink:href="#linearGradientF8FBFEEDF5FCDEEDFAD4E7F8E2E5E9" id="linearGradientF8FBFEEDF5FCDEEDFAD4E7F8E2E5E9_1275527245" x1="0" y1="209.0" x2="0" y2="315.0" gradientUnits="userSpaceOnUse" xlink:type="simple" xlink:actuate="onLoad" xlink:show="other" /><linearGradient xmlns:xlink="http://www.w3.org/1999/xlink" xlink:href="#linearGradientFF6666FF9696FFB6B6" id="linearGradientFF6666FF9696FFB6B6_1636162829" x1="0" y1="410.0" x2="0" y2="445.0" gradientUnits="userSpaceOnUse" xlink:type="simple" xlink:actuate="onLoad" xlink:show="other" /><linearGradient id="linearGradientFF6666FF9696FFB6B6"><stop style="stop-color:#FF6666;stop-opacity:1;" offset="0.0" id="stopFF6666" /><stop style="stop-color:#FF9696;stop-opacity:1;" offset="0.5" id="stopFF9696" /><stop style="stop-color:#FFB6B6;stop-opacity:1;" offset="1.0" id="stopFFB6B6" /></linearGradient><linearGradient xmlns:xlink="http://www.w3.org/1999/xlink" xlink:href="#linearGradientFAFBFCFFFFCC" id="linearGradientFAFBFCFFFFCC_497010054" x1="0" y1="186.0" x2="0" y2="246.0" gradientUnits="userSpaceOnUse" xlink:type="simple" xlink:actuate="onLoad" xlink:show="other" /><linearGradient id="linearGradientFAFBFCFFFFCC"><stop style="stop-color:#FAFBFC;stop-opacity:1;" offset="0.0" id="stopFAFBFC" /><stop style="stop-color:#FFFFCC;stop-opacity:1;" offset="1.0" id="stopFFFFCC" /></linearGradient><linearGradient xmlns:xlink="http://www.w3.org/1999/xlink" xlink:href="#linearGradientFAFBFCFFFFCC" id="linearGradientFAFBFCFFFFCC_1104301704" x1="0" y1="186.0" x2="0" y2="246.0" gradientUnits="userSpaceOnUse" xlink:type="simple" xlink:actuate="onLoad" xlink:show="other" /><linearGradient xmlns:xlink="http://www.w3.org/1999/xlink" xlink:href="#linearGradientFAFBFCFFFFCC" id="linearGradientFAFBFCFFFFCC_899885975" x1="0" y1="186.0" x2="0" y2="246.0" gradientUnits="userSpaceOnUse" xlink:type="simple" xlink:actuate="onLoad" xlink:show="other" /><linearGradient xmlns:xlink="http://www.w3.org/1999/xlink" xlink:href="#linearGradientFAFBFCFFFFCC" id="linearGradientFAFBFCFFFFCC_2055337371" x1="0" y1="186.0" x2="0" y2="246.0" gradientUnits="userSpaceOnUse" xlink:type="simple" xlink:actuate="onLoad" xlink:show="other" /><linearGradient xmlns:xlink="http://www.w3.org/1999/xlink" xlink:href="#linearGradientF8FBFEEDF5FCDEEDFAD4E7F8E2E5E9" id="linearGradientF8FBFEEDF5FCDEEDFAD4E7F8E2E5E9_433175736" x1="0" y1="386.0" x2="0" y2="492.0" gradientUnits="userSpaceOnUse" xlink:type="simple" xlink:actuate="onLoad" xlink:show="other" /><linearGradient xmlns:xlink="http://www.w3.org/1999/xlink" xlink:href="#linearGradientF8FBFEEDF5FCDEEDFAD4E7F8E2E5E9" id="linearGradientF8FBFEEDF5FCDEEDFAD4E7F8E2E5E9_1252263684" x1="0" y1="353.0" x2="0" y2="459.0" gradientUnits="userSpaceOnUse" xlink:type="simple" xlink:actuate="onLoad" xlink:show="other" /><linearGradient xmlns:xlink="http://www.w3.org/1999/xlink" xlink:href="#linearGradientF8FBFEEDF5FCDEEDFAD4E7F8E2E5E9" id="linearGradientF8FBFEEDF5FCDEEDFAD4E7F8E2E5E9_1719099988" x1="0" y1="340.0" x2="0" y2="446.0" gradientUnits="userSpaceOnUse" xlink:type="simple" xlink:actuate="onLoad" xlink:show="other" /><linearGradient xmlns:xlink="http://www.w3.org/1999/xlink" xlink:href="#linearGradientF8FBFEEDF5FCDEEDFAD4E7F8E2E5E9" id="linearGradientF8FBFEEDF5FCDEEDFAD4E7F8E2E5E9_321875500" x1="0" y1="340.0" x2="0" y2="446.0" gradientUnits="userSpaceOnUse" xlink:type="simple" xlink:actuate="onLoad" xlink:show="other" /><linearGradient xmlns:xlink="http://www.w3.org/1999/xlink" xlink:href="#linearGradientF8FBFEEDF5FCDEEDFAD4E7F8E2E5E9" id="linearGradientF8FBFEEDF5FCDEEDFAD4E7F8E2E5E9_118432909" x1="0" y1="360.0" x2="0" y2="466.0" gradientUnits="userSpaceOnUse" xlink:type="simple" xlink:actuate="onLoad" xlink:show="other" /><linearGradient xmlns:xlink="http://www.w3.org/1999/xlink" xlink:href="#linearGradientFF6666FF9696FFB6B6" id="linearGradientFF6666FF9696FFB6B6_1845075791" x1="0" y1="219.0" x2="0" y2="254.0" gradientUnits="userSpaceOnUse" xlink:type="simple" xlink:actuate="onLoad" xlink:show="other" /><linearGradient xmlns:xlink="http://www.w3.org/1999/xlink" xlink:href="#linearGradientF8FBFEEDF5FCDEEDFAD4E7F8E2E5E9" id="linearGradientF8FBFEEDF5FCDEEDFAD4E7F8E2E5E9_809579878" x1="0" y1="202.0" x2="0" y2="308.0" gradientUnits="userSpaceOnUse" xlink:type="simple" xlink:actuate="onLoad" xlink:show="other" /><linearGradient xmlns:xlink="http://www.w3.org/1999/xlink" xlink:href="#linearGradientF8FBFEEDF5FCDEEDFAD4E7F8E2E5E9" id="linearGradientF8FBFEEDF5FCDEEDFAD4E7F8E2E5E9_1484223308" x1="0" y1="380.0" x2="0" y2="486.0" gradientUnits="userSpaceOnUse" xlink:type="simple" xlink:actuate="onLoad" xlink:show="other" /><linearGradient xmlns:xlink="http://www.w3.org/1999/xlink" xlink:href="#linearGradientFAFBFCFFFFCC" id="linearGradientFAFBFCFFFFCC_639766403" x1="0" y1="179.0" x2="0" y2="239.0" gradientUnits="userSpaceOnUse" xlink:type="simple" xlink:actuate="onLoad" xlink:show="other" /><linearGradient xmlns:xlink="http://www.w3.org/1999/xlink" xlink:href="#linearGradientFF6666FF9696FFB6B6" id="linearGradientFF6666FF9696FFB6B6_125894639" x1="0" y1="393.0" x2="0" y2="428.0" gradientUnits="userSpaceOnUse" xlink:type="simple" xlink:actuate="onLoad" xlink:show="other" /><linearGradient xmlns:xlink="http://www.w3.org/1999/xlink" xlink:href="#linearGradientFAFBFCFFFFCC" id="linearGradientFAFBFCFFFFCC_1054019708" x1="0" y1="186.0" x2="0" y2="246.0" gradientUnits="userSpaceOnUse" xlink:type="simple" xlink:actuate="onLoad" xlink:show="other" /><linearGradient xmlns:xlink="http://www.w3.org/1999/xlink" xlink:href="#linearGradientFF6666FF9696FFB6B6" id="linearGradientFF6666FF9696FFB6B6_1566439929" x1="0" y1="370.0" x2="0" y2="405.0" gradientUnits="userSpaceOnUse" xlink:type="simple" xlink:actuate="onLoad" xlink:show="other" /></defs></svg>
