<?xml version="1.0" encoding="UTF-8"?>
<svg xmlns="http://www.w3.org/2000/svg" style="stroke-dasharray:none; shape-rendering:auto; font-family:'Arial'; text-rendering:auto; fill-opacity:1; color-interpolation:auto; color-rendering:auto; font-size:12; fill:black; stroke:black; image-rendering:auto; stroke-miterlimit:10; stroke-linecap:square; stroke-linejoin:miter; font-style:normal; stroke-width:1; stroke-dashoffset:0; font-weight:normal; stroke-opacity:1;" contentScriptType="text/ecmascript" preserveAspectRatio="xMidYMid meet" zoomAndPan="magnify" version="1.0" contentStyleType="text/css" xml:xlink="http://www.w3.org/1999/xlink" width="1975" height="851"><rect x="10" y="10" width="1951" height="841" ry="0" rx="0" style="stroke:#000000; fill:#FFFFFF" /><rect x="40" y="290" width="1921" height="280" ry="0" rx="0" style="stroke:#000000; fill:#82B0B7" /><g componentSequence="4"><text x="-430" y="47" transform="rotate(270)" text-anchor="middle" style="font-weight:bold;font-size:10px;stroke:none; fill:#434343"><tspan dy="14" x="-430">Fim</tspan></text></g><rect x="40" y="570" width="1921" height="281" ry="0" rx="0" style="stroke:#000000; fill:#9F9F9F" /><g componentSequence="3"><text x="-710" y="47" transform="rotate(270)" text-anchor="middle" style="font-weight:bold;font-size:10px;stroke:none; fill:#434343"><tspan dy="14" x="-710">Início</tspan></text></g><rect x="40" y="10" width="1921" height="280" ry="0" rx="0" style="stroke:#000000; fill:#C0C0C0" /><g componentSequence="2"><text x="-150" y="47" transform="rotate(270)" text-anchor="middle" style="font-weight:bold;font-size:10px;stroke:none; fill:#434343"><tspan dy="14" x="-150">Processo</tspan></text></g><g componentSequence="1"><text x="-430" y="17" transform="rotate(270)" text-anchor="middle" style="font-weight:bold;font-size:10px;stroke:none; fill:#434343"><tspan dy="14" x="-430">Pool</tspan></text></g><g sequence="8"><ellipse cx="317" cy="86" rx="17" ry="17" stroke-width="1" style="fill:url(#linearGradient66FF6696FF96B6FFB6_1814866156);" stroke="336633" /></g><g sequence="10"><rect x="270" y="202" width="106" height="70" ry="5" rx="5" style="fill:url(#linearGradientF8FBFEEDF5FCDEEDFAD4E7F8E2E5E9_1659587353);" stroke="191970" /></g><g componentSequence="10"><text x="323" y="217" text-anchor="middle" style="font-weight:bold;font-size:10px;stroke:none; fill:#333399"><tspan dy="14" x="323">Aprovação</tspan><tspan dy="14" x="323">Encarregado</tspan></text></g><g sequence="11"><rect x="550" y="202" width="106" height="70" ry="5" rx="5" style="fill:url(#linearGradientF8FBFEEDF5FCDEEDFAD4E7F8E2E5E9_1725219740);" stroke="191970" /></g><g componentSequence="11"><text x="603" y="217" text-anchor="middle" style="font-weight:bold;font-size:10px;stroke:none; fill:#333399"><tspan dy="14" x="603">Aprovação</tspan><tspan dy="14" x="603">Engenheiro</tspan></text></g><g sequence="12"><rect x="850" y="210" width="106" height="56" ry="5" rx="5" style="fill:url(#linearGradientF8FBFEEDF5FCDEEDFAD4E7F8E2E5E9_601243938);" stroke="191970" /></g><g componentSequence="12"><text x="903" y="227" text-anchor="middle" style="font-weight:bold;font-size:10px;stroke:none; fill:#333399"><tspan dy="14" x="903">Aprovação R.H.</tspan></text></g><g sequence="13"><rect x="1100" y="195" width="106" height="84" ry="5" rx="5" style="fill:url(#linearGradientF8FBFEEDF5FCDEEDFAD4E7F8E2E5E9_708109948);" stroke="191970" /></g><g componentSequence="13"><text x="1153" y="210" text-anchor="middle" style="font-weight:bold;font-size:10px;stroke:none; fill:#333399"><tspan dy="14" x="1153">Aprovação</tspan><tspan dy="14" x="1153">Coordenação</tspan><tspan dy="14" x="1153">Engenharia</tspan></text></g><g sequence="14"><rect x="1410" y="209" width="106" height="56" ry="5" rx="5" style="fill:url(#linearGradientF8FBFEEDF5FCDEEDFAD4E7F8E2E5E9_314557344);" stroke="191970" /></g><g componentSequence="14"><text x="1463" y="226" text-anchor="middle" style="font-weight:bold;font-size:10px;stroke:none; fill:#333399"><tspan dy="14" x="1463">Revisão do RH</tspan></text></g><g sequence="15"><rect x="1610" y="202" width="106" height="70" ry="5" rx="5" style="fill:url(#linearGradientF8FBFEEDF5FCDEEDFAD4E7F8E2E5E9_1387739720);" stroke="191970" /></g><g componentSequence="15"><text x="1663" y="217" text-anchor="middle" style="font-weight:bold;font-size:10px;stroke:none; fill:#333399"><tspan dy="14" x="1663">Aprovação</tspan><tspan dy="14" x="1663">Diretoria</tspan></text></g><g sequence="16"><ellipse cx="897" cy="427" rx="17" ry="17" stroke-width="3" style="fill:url(#linearGradientFF6666FF9696FFB6B6_1140440685);" stroke="993333" /></g><g sequence="32"><polygon points=" 430 216 460 186 490 216 460 246 430 216" style="fill:url(#linearGradientFAFBFCFFFFCC_1324590952);" stroke="000000" /></g><g componentSequence="32"><text x="460" y="256" text-anchor="middle" style="font-weight:bold;font-size:10px;stroke:none; fill:#333399"><tspan dy="14" x="460">Respost</tspan><tspan dy="14" x="460">a do</tspan><tspan dy="14" x="460">Encar...</tspan></text></g><g sequence="36"><polygon points=" 730 216 760 186 790 216 760 246 730 216" style="fill:url(#linearGradientFAFBFCFFFFCC_574480341);" stroke="000000" /></g><g componentSequence="36"><text x="760" y="256" text-anchor="middle" style="font-weight:bold;font-size:10px;stroke:none; fill:#333399"><tspan dy="14" x="760">Respost</tspan><tspan dy="14" x="760">a do</tspan><tspan dy="14" x="760">Engen...</tspan></text></g><g sequence="41"><polygon points=" 1000 216 1030 186 1060 216 1030 246 1000 216" style="fill:url(#linearGradientFAFBFCFFFFCC_1236522144);" stroke="000000" /></g><g componentSequence="41"><text x="1030" y="256" text-anchor="middle" style="font-weight:bold;font-size:10px;stroke:none; fill:#333399"><tspan dy="14" x="1030">Respost</tspan><tspan dy="14" x="1030">a do RH</tspan></text></g><g sequence="45"><polygon points=" 1280 216 1310 186 1340 216 1310 246 1280 216" style="fill:url(#linearGradientFAFBFCFFFFCC_1203175725);" stroke="000000" /></g><g componentSequence="45"><text x="1310" y="256" text-anchor="middle" style="font-weight:bold;font-size:10px;stroke:none; fill:#333399"><tspan dy="14" x="1310">Respost</tspan><tspan dy="14" x="1310">a do</tspan><tspan dy="14" x="1310">coo...</tspan></text></g><g sequence="53"><polygon points=" 1800 216 1830 186 1860 216 1830 246 1800 216" style="fill:url(#linearGradientFAFBFCFFFFCC_338437716);" stroke="000000" /></g><g componentSequence="53"><text x="1830" y="256" text-anchor="middle" style="font-weight:bold;font-size:10px;stroke:none; fill:#333399"><tspan dy="14" x="1830">Respost</tspan><tspan dy="14" x="1830">a do</tspan><tspan dy="14" x="1830">Diretor</tspan></text></g><g sequence="57"><ellipse cx="1927" cy="236" rx="17" ry="17" stroke-width="3" style="fill:url(#linearGradientFF6666FF9696FFB6B6_1487114355);" stroke="993333" /></g><g sequence="57"><polygon points=" 1916 249 1922 227 1928 239 1935 227 1928 249 1922 237" style="stroke:none; fill:#993333" /></g><g sequence="59"><ellipse cx="1842" cy="390" rx="17" ry="17" stroke-width="3" style="fill:url(#linearGradientFF6666FF9696FFB6B6_258103571);" stroke="993333" /></g><g sequence="61"><rect x="270" y="377" width="106" height="70" ry="5" rx="5" style="fill:url(#linearGradientF8FBFEEDF5FCDEEDFAD4E7F8E2E5E9_1881382843);" stroke="191970" /></g><g componentSequence="61"><text x="323" y="392" text-anchor="middle" style="font-weight:bold;font-size:10px;stroke:none; fill:#333399"><tspan dy="14" x="323">Solicitação de</tspan><tspan dy="14" x="323">Informação</tspan></text></g><g sequence="64"><rect x="550" y="350" width="106" height="70" ry="5" rx="5" style="fill:url(#linearGradientF8FBFEEDF5FCDEEDFAD4E7F8E2E5E9_88607085);" stroke="191970" /></g><g componentSequence="64"><text x="603" y="365" text-anchor="middle" style="font-weight:bold;font-size:10px;stroke:none; fill:#333399"><tspan dy="14" x="603">Solicitação de</tspan><tspan dy="14" x="603">Informação</tspan></text></g><g sequence="67"><rect x="1170" y="340" width="106" height="70" ry="5" rx="5" style="fill:url(#linearGradientF8FBFEEDF5FCDEEDFAD4E7F8E2E5E9_1093411263);" stroke="191970" /></g><g componentSequence="67"><text x="1223" y="355" text-anchor="middle" style="font-weight:bold;font-size:10px;stroke:none; fill:#333399"><tspan dy="14" x="1223">Solicitação de</tspan><tspan dy="14" x="1223">Informação</tspan></text></g><g sequence="70"><rect x="1410" y="360" width="106" height="70" ry="5" rx="5" style="fill:url(#linearGradientF8FBFEEDF5FCDEEDFAD4E7F8E2E5E9_1545290312);" stroke="191970" /></g><g componentSequence="70"><text x="1463" y="375" text-anchor="middle" style="font-weight:bold;font-size:10px;stroke:none; fill:#333399"><tspan dy="14" x="1463">Solicitação de</tspan><tspan dy="14" x="1463">Informação</tspan></text></g><g sequence="73"><rect x="1610" y="360" width="106" height="70" ry="5" rx="5" style="fill:url(#linearGradientF8FBFEEDF5FCDEEDFAD4E7F8E2E5E9_816431159);" stroke="191970" /></g><g componentSequence="73"><text x="1663" y="375" text-anchor="middle" style="font-weight:bold;font-size:10px;stroke:none; fill:#333399"><tspan dy="14" x="1663">Solicitação de</tspan><tspan dy="14" x="1663">Informação</tspan></text></g><g sequence="76"><polygon points=" 1536 133 1566 103 1596 133 1566 163 1536 133" style="fill:url(#linearGradientFAFBFCFFFFCC_1978643502);" stroke="000000" /></g><g componentSequence="76"><text x="1566" y="173" text-anchor="middle" style="font-weight:bold;font-size:10px;stroke:none; fill:#333399"><tspan dy="14" x="1566">Valida</tspan><tspan dy="14" x="1566">Aprovad</tspan><tspan dy="14" x="1566">or</tspan></text></g><g sequence="79"><ellipse cx="1567" cy="357" rx="17" ry="17" stroke-width="3" style="fill:url(#linearGradientFF6666FF9696FFB6B6_1441682165);" stroke="993333" /></g><rect x="130" y="40" width="105" height="55" ry="5" rx="5" style="stroke:none; fill:#FFFFE0" /><g componentSequence="7"><text x="140" y="53" text-anchor="left" style="font-weight:bold;font-size:10px;stroke:none; fill:#000000"><tspan dy="14" x="140">Start</tspan></text></g><path style="fill:none; stroke-width:1; stroke:#000000;" d="M150.0 40.0 L130.0 40.0 L130.0 95.0 L150.0 95.0" /><g componentSequence="33"><text x="413" y="241" style="font-size:10px;font-weight:none;stroke:none; fill:#333399" text-anchor="left" /></g><g componentSequence="34"><text x="530" y="241" style="font-size:10px;font-weight:none;stroke:none; fill:#333399" text-anchor="left" /></g><g componentSequence="37"><text x="703" y="241" style="font-size:10px;font-weight:none;stroke:none; fill:#333399" text-anchor="left" /></g><g componentSequence="38"><text x="830" y="241" style="font-size:10px;font-weight:none;stroke:none; fill:#333399" text-anchor="left" /></g><g componentSequence="42"><text x="988" y="237" style="font-size:10px;font-weight:none;stroke:none; fill:#333399" text-anchor="left" /></g><g componentSequence="43"><text x="1090" y="237" style="font-size:10px;font-weight:none;stroke:none; fill:#333399" text-anchor="left" /></g><g componentSequence="46"><text x="1253" y="241" style="font-size:10px;font-weight:none;stroke:none; fill:#333399" text-anchor="left" /></g><g componentSequence="47"><text x="1385" y="241" style="font-size:10px;font-weight:none;stroke:none; fill:#333399" text-anchor="left" /></g><g componentSequence="49"><text x="617" y="427" style="font-size:10px;font-weight:none;stroke:none; fill:#333399" text-anchor="left" /></g><g componentSequence="50"><text x="770" y="424" style="font-size:10px;font-weight:none;stroke:none; fill:#333399" text-anchor="left"><tspan dy="14" x="770">Finalizada e Reprovado</tspan></text></g><g componentSequence="51"><text x="1039" y="415" style="font-size:10px;font-weight:none;stroke:none; fill:#333399" text-anchor="left" /></g><g componentSequence="52"><text x="1185" y="427" style="font-size:10px;font-weight:none;stroke:none; fill:#333399" text-anchor="left" /></g><g componentSequence="54"><text x="1768" y="241" style="font-size:10px;font-weight:none;stroke:none; fill:#333399" text-anchor="left" /></g><g componentSequence="56"><text x="330" y="153" style="font-size:10px;font-weight:none;stroke:none; fill:#333399" text-anchor="left" /></g><g componentSequence="58"><text x="1895" y="239" style="font-size:10px;font-weight:none;stroke:none; fill:#333399" text-anchor="left" /></g><g componentSequence="60"><text x="1847" y="337" style="font-size:10px;font-weight:none;stroke:none; fill:#333399" text-anchor="left"><tspan dy="14" x="1847">Finalizado e Aprovado</tspan></text></g><g componentSequence="62"><text x="300" y="324" style="font-size:10px;font-weight:none;stroke:none; fill:#333399" text-anchor="left" /></g><g componentSequence="63"><text x="365" y="324" style="font-size:10px;font-weight:none;stroke:none; fill:#333399" text-anchor="left" /></g><g componentSequence="65"><text x="639" y="311" style="font-size:10px;font-weight:none;stroke:none; fill:#333399" text-anchor="left" /></g><g componentSequence="66"><text x="582" y="311" style="font-size:10px;font-weight:none;stroke:none; fill:#333399" text-anchor="left" /></g><g componentSequence="68"><text x="1199" y="309" style="font-size:10px;font-weight:none;stroke:none; fill:#333399" text-anchor="left" /></g><g componentSequence="69"><text x="1227" y="305" style="font-size:10px;font-weight:none;stroke:none; fill:#333399" text-anchor="left" /></g><g componentSequence="71"><text x="1466" y="312" style="font-size:10px;font-weight:none;stroke:none; fill:#333399" text-anchor="left" /></g><g componentSequence="72"><text x="1479" y="312" style="font-size:10px;font-weight:none;stroke:none; fill:#333399" text-anchor="left" /></g><g componentSequence="74"><text x="1664" y="315" style="font-size:10px;font-weight:none;stroke:none; fill:#333399" text-anchor="left" /></g><g componentSequence="75"><text x="1680" y="316" style="font-size:10px;font-weight:none;stroke:none; fill:#333399" text-anchor="left" /></g><g componentSequence="77"><text x="1529" y="196" style="font-size:10px;font-weight:none;stroke:none; fill:#333399" text-anchor="left" /></g><g componentSequence="78"><text x="1617" y="193" style="font-size:10px;font-weight:none;stroke:none; fill:#333399" text-anchor="left" /></g><g componentSequence="80"><text x="1577" y="279" style="font-size:10px;font-weight:none;stroke:none; fill:#333399" text-anchor="left"><tspan dy="14" x="1577">Aprovado</tspan></text></g><g componentSequence="29"><text x="277" y="79" style="font-size:10px;font-weight:none;stroke:none; fill:#333399" text-anchor="left" /></g><path style="fill:none; stroke:#000000;stroke-width:1" d="M317.0 103.0 L321.0 201.0" /><polygon style="fill:#000000; stroke:#000000;" points=" 326 191 321 201 316 191 321 193" /><path style="fill:none; stroke:#000000;stroke-dasharray:2" d="M235.0 74.0 L300.0 84.0" /><path style="fill:none; stroke:#000000;stroke-width:1" d="M376.0 239.0 L429.0 242.0" /><polygon style="fill:#000000; stroke:#000000;" points=" 419 236 429 242 419 246 421 242" /><path style="fill:none; stroke:#000000;stroke-width:1" d="M309.0 272.0 L290.0 323.0 L309.0 376.0" /><polygon style="fill:#000000; stroke:#000000;" points=" 310 365 309 376 301 368 306 368" /><path style="fill:none; stroke:#000000;stroke-width:1" d="M336.0 376.0 L355.0 324.0 L336.0 272.0" /><polygon style="fill:#000000; stroke:#000000;" points=" 335 283 336 272 344 280 339 280" /><path style="fill:none; stroke:#000000;stroke-width:1" d="M656.0 239.0 L729.0 242.0" /><polygon style="fill:#000000; stroke:#000000;" points=" 719 237 729 242 719 247 721 242" /><path style="fill:none; stroke:#000000;stroke-width:1" d="M615.0 272.0 L631.0 316.0 L617.0 349.0" /><polygon style="fill:#000000; stroke:#000000;" points=" 626 342 617 349 616 338 620 342" /><path style="fill:none; stroke:#000000;stroke-width:1" d="M490.0 242.0 L549.0 239.0" /><polygon style="fill:#000000; stroke:#000000;" points=" 539 235 549 239 539 245 541 239" /><path style="fill:none; stroke:#000000;stroke-width:1" d="M585.0 349.0 L570.0 317.0 L588.0 272.0" /><polygon style="fill:#000000; stroke:#000000;" points=" 580 279 588 272 589 283 585 279" /><path style="fill:none; stroke:#000000;stroke-width:1" d="M956.0 237.0 L999.0 237.0" /><polygon style="fill:#000000; stroke:#000000;" points=" 989 232 999 237 989 242 991 237" /><path style="fill:none; stroke:#000000;stroke-width:1" d="M790.0 242.0 L849.0 240.0" /><polygon style="fill:#000000; stroke:#000000;" points=" 839 235 849 240 839 245 841 240" /><path style="fill:none; stroke:#000000;stroke-width:1" d="M1206.0 239.0 L1279.0 242.0" /><polygon style="fill:#000000; stroke:#000000;" points=" 1269 237 1279 242 1269 247 1271 242" /><path style="fill:none; stroke:#000000;stroke-width:1" d="M1174.0 279.0 L1205.0 339.0" /><polygon style="fill:#000000; stroke:#000000;" points=" 1205 328 1205 339 1196 332 1201 332" /><path style="fill:none; stroke:#000000;stroke-width:1" d="M1060.0 237.0 L1099.0 237.0" /><polygon style="fill:#000000; stroke:#000000;" points=" 1089 232 1099 237 1089 242 1091 237" /><path style="fill:none; stroke:#000000;stroke-width:1" d="M1220.0 339.0 L1218.0 306.0 L1193.0 279.0" /><polygon style="fill:#000000; stroke:#000000;" points=" 1196 290 1193 279 1203 283 1198 285" /><path style="fill:none; stroke:#000000;stroke-width:1" d="M1460.0 265.0 L1456.0 311.0 L1460.0 359.0" /><polygon style="fill:#000000; stroke:#000000;" points=" 1464 349 1460 359 1454 349 1459 351" /><path style="fill:none; stroke:#000000;stroke-width:1" d="M1502.0 208.0 L1535.0 183.0" /><polygon style="fill:#000000; stroke:#000000;" points=" 1524 185 1535 183 1530 193 1529 188" /><path style="fill:none; stroke:#000000;stroke-width:1" d="M1340.0 242.0 L1409.0 239.0" /><polygon style="fill:#000000; stroke:#000000;" points=" 1399 234 1409 239 1399 244 1401 239" /><path style="fill:none; stroke:#000000;stroke-width:1" d="M1465.0 359.0 L1469.0 314.0 L1465.0 265.0" /><polygon style="fill:#000000; stroke:#000000;" points=" 1461 275 1465 265 1471 275 1466 273" /><path style="fill:none; stroke:#000000;stroke-width:1" d="M1716.0 239.0 L1799.0 242.0" /><polygon style="fill:#000000; stroke:#000000;" points=" 1789 237 1799 242 1789 247 1791 242" /><path style="fill:none; stroke:#000000;stroke-width:1" d="M1659.0 272.0 L1654.0 313.0 L1659.0 359.0" /><polygon style="fill:#000000; stroke:#000000;" points=" 1663 349 1659 359 1653 350 1658 351" /><path style="fill:none; stroke:#000000;stroke-width:1" d="M1666.0 359.0 L1670.0 316.0 L1666.0 272.0" /><polygon style="fill:#000000; stroke:#000000;" points=" 1662 282 1666 272 1672 282 1667 280" /><path style="fill:none; stroke:#000000;stroke-width:1" d="M1596.0 184.0 L1617.0 201.0" /><polygon style="fill:#000000; stroke:#000000;" points=" 1612 191 1617 201 1606 199 1611 196" /><path style="fill:none; stroke:#000000;stroke-width:1" d="M459.0 302.0 L459.0 427.0 L879.0 427.0" /><polygon style="fill:#000000; stroke:#000000;" points=" 869 422 879 427 869 432 871 427" /><path style="fill:none; stroke:#000000;stroke-width:1" d="M760.0 302.0 L760.0 427.0 L879.0 427.0" /><polygon style="fill:#000000; stroke:#000000;" points=" 869 422 879 427 869 432 871 427" /><path style="fill:none; stroke:#000000;stroke-width:1" d="M1029.0 288.0 L1029.0 427.0 L915.0 427.0" /><polygon style="fill:#000000; stroke:#000000;" points=" 925 432 915 427 925 422 923 427" /><path style="fill:none; stroke:#000000;stroke-width:1" d="M1310.0 302.0 L1310.0 427.0 L915.0 427.0" /><polygon style="fill:#000000; stroke:#000000;" points=" 925 432 915 427 925 422 923 427" /><path style="fill:none; stroke:#000000;stroke-width:1" d="M1860.0 241.0 L1910.0 237.0" /><polygon style="fill:#000000; stroke:#000000;" points=" 1900 233 1910 237 1900 243 1902 238" /><path style="fill:none; stroke:#000000;stroke-width:1" d="M1834.0 302.0 L1841.0 373.0" /><polygon style="fill:#000000; stroke:#000000;" points=" 1845 363 1841 373 1835 364 1840 365" /><path style="fill:none; stroke:#000000;stroke-width:1" d="M1566.0 219.0 L1567.0 340.0" /><polygon style="fill:#000000; stroke:#000000;" points=" 1572 330 1567 340 1562 330 1567 332" /><defs><linearGradient xmlns:xlink="http://www.w3.org/1999/xlink" xlink:href="#linearGradient66FF6696FF96B6FFB6" id="linearGradient66FF6696FF96B6FFB6_1814866156" x1="0" y1="69.0" x2="0" y2="104.0" gradientUnits="userSpaceOnUse" xlink:type="simple" xlink:actuate="onLoad" xlink:show="other" /><linearGradient id="linearGradient66FF6696FF96B6FFB6"><stop style="stop-color:#66FF66;stop-opacity:1;" offset="0.0" id="stop66FF66" /><stop style="stop-color:#96FF96;stop-opacity:1;" offset="0.5" id="stop96FF96" /><stop style="stop-color:#B6FFB6;stop-opacity:1;" offset="1.0" id="stopB6FFB6" /></linearGradient><linearGradient xmlns:xlink="http://www.w3.org/1999/xlink" xlink:href="#linearGradientF8FBFEEDF5FCDEEDFAD4E7F8E2E5E9" id="linearGradientF8FBFEEDF5FCDEEDFAD4E7F8E2E5E9_1659587353" x1="0" y1="202.0" x2="0" y2="308.0" gradientUnits="userSpaceOnUse" xlink:type="simple" xlink:actuate="onLoad" xlink:show="other" /><linearGradient id="linearGradientF8FBFEEDF5FCDEEDFAD4E7F8E2E5E9"><stop style="stop-color:#F8FBFE;stop-opacity:1;" offset="0.0" id="stopF8FBFE" /><stop style="stop-color:#EDF5FC;stop-opacity:1;" offset="0.25" id="stopEDF5FC" /><stop style="stop-color:#DEEDFA;stop-opacity:1;" offset="0.5" id="stopDEEDFA" /><stop style="stop-color:#D4E7F8;stop-opacity:1;" offset="0.75" id="stopD4E7F8" /><stop style="stop-color:#E2E5E9;stop-opacity:1;" offset="1.0" id="stopE2E5E9" /></linearGradient><linearGradient xmlns:xlink="http://www.w3.org/1999/xlink" xlink:href="#linearGradientF8FBFEEDF5FCDEEDFAD4E7F8E2E5E9" id="linearGradientF8FBFEEDF5FCDEEDFAD4E7F8E2E5E9_1725219740" x1="0" y1="202.0" x2="0" y2="308.0" gradientUnits="userSpaceOnUse" xlink:type="simple" xlink:actuate="onLoad" xlink:show="other" /><linearGradient xmlns:xlink="http://www.w3.org/1999/xlink" xlink:href="#linearGradientF8FBFEEDF5FCDEEDFAD4E7F8E2E5E9" id="linearGradientF8FBFEEDF5FCDEEDFAD4E7F8E2E5E9_601243938" x1="0" y1="210.0" x2="0" y2="316.0" gradientUnits="userSpaceOnUse" xlink:type="simple" xlink:actuate="onLoad" xlink:show="other" /><linearGradient xmlns:xlink="http://www.w3.org/1999/xlink" xlink:href="#linearGradientF8FBFEEDF5FCDEEDFAD4E7F8E2E5E9" id="linearGradientF8FBFEEDF5FCDEEDFAD4E7F8E2E5E9_708109948" x1="0" y1="195.0" x2="0" y2="301.0" gradientUnits="userSpaceOnUse" xlink:type="simple" xlink:actuate="onLoad" xlink:show="other" /><linearGradient xmlns:xlink="http://www.w3.org/1999/xlink" xlink:href="#linearGradientF8FBFEEDF5FCDEEDFAD4E7F8E2E5E9" id="linearGradientF8FBFEEDF5FCDEEDFAD4E7F8E2E5E9_314557344" x1="0" y1="209.0" x2="0" y2="315.0" gradientUnits="userSpaceOnUse" xlink:type="simple" xlink:actuate="onLoad" xlink:show="other" /><linearGradient xmlns:xlink="http://www.w3.org/1999/xlink" xlink:href="#linearGradientF8FBFEEDF5FCDEEDFAD4E7F8E2E5E9" id="linearGradientF8FBFEEDF5FCDEEDFAD4E7F8E2E5E9_1387739720" x1="0" y1="202.0" x2="0" y2="308.0" gradientUnits="userSpaceOnUse" xlink:type="simple" xlink:actuate="onLoad" xlink:show="other" /><linearGradient xmlns:xlink="http://www.w3.org/1999/xlink" xlink:href="#linearGradientFF6666FF9696FFB6B6" id="linearGradientFF6666FF9696FFB6B6_1140440685" x1="0" y1="410.0" x2="0" y2="445.0" gradientUnits="userSpaceOnUse" xlink:type="simple" xlink:actuate="onLoad" xlink:show="other" /><linearGradient id="linearGradientFF6666FF9696FFB6B6"><stop style="stop-color:#FF6666;stop-opacity:1;" offset="0.0" id="stopFF6666" /><stop style="stop-color:#FF9696;stop-opacity:1;" offset="0.5" id="stopFF9696" /><stop style="stop-color:#FFB6B6;stop-opacity:1;" offset="1.0" id="stopFFB6B6" /></linearGradient><linearGradient xmlns:xlink="http://www.w3.org/1999/xlink" xlink:href="#linearGradientFAFBFCFFFFCC" id="linearGradientFAFBFCFFFFCC_1324590952" x1="0" y1="186.0" x2="0" y2="246.0" gradientUnits="userSpaceOnUse" xlink:type="simple" xlink:actuate="onLoad" xlink:show="other" /><linearGradient id="linearGradientFAFBFCFFFFCC"><stop style="stop-color:#FAFBFC;stop-opacity:1;" offset="0.0" id="stopFAFBFC" /><stop style="stop-color:#FFFFCC;stop-opacity:1;" offset="1.0" id="stopFFFFCC" /></linearGradient><linearGradient xmlns:xlink="http://www.w3.org/1999/xlink" xlink:href="#linearGradientFAFBFCFFFFCC" id="linearGradientFAFBFCFFFFCC_574480341" x1="0" y1="186.0" x2="0" y2="246.0" gradientUnits="userSpaceOnUse" xlink:type="simple" xlink:actuate="onLoad" xlink:show="other" /><linearGradient xmlns:xlink="http://www.w3.org/1999/xlink" xlink:href="#linearGradientFAFBFCFFFFCC" id="linearGradientFAFBFCFFFFCC_1236522144" x1="0" y1="186.0" x2="0" y2="246.0" gradientUnits="userSpaceOnUse" xlink:type="simple" xlink:actuate="onLoad" xlink:show="other" /><linearGradient xmlns:xlink="http://www.w3.org/1999/xlink" xlink:href="#linearGradientFAFBFCFFFFCC" id="linearGradientFAFBFCFFFFCC_1203175725" x1="0" y1="186.0" x2="0" y2="246.0" gradientUnits="userSpaceOnUse" xlink:type="simple" xlink:actuate="onLoad" xlink:show="other" /><linearGradient xmlns:xlink="http://www.w3.org/1999/xlink" xlink:href="#linearGradientFAFBFCFFFFCC" id="linearGradientFAFBFCFFFFCC_338437716" x1="0" y1="186.0" x2="0" y2="246.0" gradientUnits="userSpaceOnUse" xlink:type="simple" xlink:actuate="onLoad" xlink:show="other" /><linearGradient xmlns:xlink="http://www.w3.org/1999/xlink" xlink:href="#linearGradientFF6666FF9696FFB6B6" id="linearGradientFF6666FF9696FFB6B6_1487114355" x1="0" y1="219.0" x2="0" y2="254.0" gradientUnits="userSpaceOnUse" xlink:type="simple" xlink:actuate="onLoad" xlink:show="other" /><linearGradient xmlns:xlink="http://www.w3.org/1999/xlink" xlink:href="#linearGradientFF6666FF9696FFB6B6" id="linearGradientFF6666FF9696FFB6B6_258103571" x1="0" y1="373.0" x2="0" y2="408.0" gradientUnits="userSpaceOnUse" xlink:type="simple" xlink:actuate="onLoad" xlink:show="other" /><linearGradient xmlns:xlink="http://www.w3.org/1999/xlink" xlink:href="#linearGradientF8FBFEEDF5FCDEEDFAD4E7F8E2E5E9" id="linearGradientF8FBFEEDF5FCDEEDFAD4E7F8E2E5E9_1881382843" x1="0" y1="377.0" x2="0" y2="483.0" gradientUnits="userSpaceOnUse" xlink:type="simple" xlink:actuate="onLoad" xlink:show="other" /><linearGradient xmlns:xlink="http://www.w3.org/1999/xlink" xlink:href="#linearGradientF8FBFEEDF5FCDEEDFAD4E7F8E2E5E9" id="linearGradientF8FBFEEDF5FCDEEDFAD4E7F8E2E5E9_88607085" x1="0" y1="350.0" x2="0" y2="456.0" gradientUnits="userSpaceOnUse" xlink:type="simple" xlink:actuate="onLoad" xlink:show="other" /><linearGradient xmlns:xlink="http://www.w3.org/1999/xlink" xlink:href="#linearGradientF8FBFEEDF5FCDEEDFAD4E7F8E2E5E9" id="linearGradientF8FBFEEDF5FCDEEDFAD4E7F8E2E5E9_1093411263" x1="0" y1="340.0" x2="0" y2="446.0" gradientUnits="userSpaceOnUse" xlink:type="simple" xlink:actuate="onLoad" xlink:show="other" /><linearGradient xmlns:xlink="http://www.w3.org/1999/xlink" xlink:href="#linearGradientF8FBFEEDF5FCDEEDFAD4E7F8E2E5E9" id="linearGradientF8FBFEEDF5FCDEEDFAD4E7F8E2E5E9_1545290312" x1="0" y1="360.0" x2="0" y2="466.0" gradientUnits="userSpaceOnUse" xlink:type="simple" xlink:actuate="onLoad" xlink:show="other" /><linearGradient xmlns:xlink="http://www.w3.org/1999/xlink" xlink:href="#linearGradientF8FBFEEDF5FCDEEDFAD4E7F8E2E5E9" id="linearGradientF8FBFEEDF5FCDEEDFAD4E7F8E2E5E9_816431159" x1="0" y1="360.0" x2="0" y2="466.0" gradientUnits="userSpaceOnUse" xlink:type="simple" xlink:actuate="onLoad" xlink:show="other" /><linearGradient xmlns:xlink="http://www.w3.org/1999/xlink" xlink:href="#linearGradientFAFBFCFFFFCC" id="linearGradientFAFBFCFFFFCC_1978643502" x1="0" y1="103.0" x2="0" y2="163.0" gradientUnits="userSpaceOnUse" xlink:type="simple" xlink:actuate="onLoad" xlink:show="other" /><linearGradient xmlns:xlink="http://www.w3.org/1999/xlink" xlink:href="#linearGradientFF6666FF9696FFB6B6" id="linearGradientFF6666FF9696FFB6B6_1441682165" x1="0" y1="340.0" x2="0" y2="375.0" gradientUnits="userSpaceOnUse" xlink:type="simple" xlink:actuate="onLoad" xlink:show="other" /></defs></svg>
