<?xml version="1.0" encoding="UTF-8"?>
<svg xmlns="http://www.w3.org/2000/svg" style="stroke-dasharray:none; shape-rendering:auto; font-family:'Arial'; text-rendering:auto; fill-opacity:1; color-interpolation:auto; color-rendering:auto; font-size:12; fill:black; stroke:black; image-rendering:auto; stroke-miterlimit:10; stroke-linecap:square; stroke-linejoin:miter; font-style:normal; stroke-width:1; stroke-dashoffset:0; font-weight:normal; stroke-opacity:1;" contentScriptType="text/ecmascript" preserveAspectRatio="xMidYMid meet" zoomAndPan="magnify" version="1.0" contentStyleType="text/css" xml:xlink="http://www.w3.org/1999/xlink" width="2241" height="461"><rect x="10" y="10" width="2231" height="451" ry="0" rx="0" style="stroke:#000000; fill:#FFFFFF" /><rect x="40" y="310" width="2201" height="151" ry="0" rx="0" style="stroke:#000000; fill:#82B0B7" /><g componentSequence="4"><text x="-385" y="47" transform="rotate(270)" text-anchor="middle" style="font-weight:bold;font-size:10px;stroke:none; fill:#434343"><tspan dy="14" x="-385">Fim</tspan></text></g><rect x="40" y="160" width="2201" height="150" ry="0" rx="0" style="stroke:#000000; fill:#9F9F9F" /><g componentSequence="3"><text x="-235" y="47" transform="rotate(270)" text-anchor="middle" style="font-weight:bold;font-size:10px;stroke:none; fill:#434343"><tspan dy="14" x="-235">Início</tspan></text></g><rect x="40" y="10" width="2201" height="150" ry="0" rx="0" style="stroke:#000000; fill:#C0C0C0" /><g componentSequence="2"><text x="-85" y="47" transform="rotate(270)" text-anchor="middle" style="font-weight:bold;font-size:10px;stroke:none; fill:#434343"><tspan dy="14" x="-85">Processo</tspan></text></g><g componentSequence="1"><text x="-235" y="17" transform="rotate(270)" text-anchor="middle" style="font-weight:bold;font-size:10px;stroke:none; fill:#434343"><tspan dy="14" x="-235">Pool</tspan></text></g><g sequence="8"><ellipse cx="317" cy="86" rx="17" ry="17" stroke-width="1" style="fill:url(#linearGradient66FF6696FF96B6FFB6_531568113);" stroke="336633" /></g><g sequence="10"><rect x="270" y="202" width="106" height="70" ry="5" rx="5" style="fill:url(#linearGradientF8FBFEEDF5FCDEEDFAD4E7F8E2E5E9_292087924);" stroke="191970" /></g><g componentSequence="10"><text x="323" y="217" text-anchor="middle" style="font-weight:bold;font-size:10px;stroke:none; fill:#333399"><tspan dy="14" x="323">Aprovação</tspan><tspan dy="14" x="323">Encarregado</tspan></text></g><g sequence="11"><rect x="550" y="202" width="106" height="70" ry="5" rx="5" style="fill:url(#linearGradientF8FBFEEDF5FCDEEDFAD4E7F8E2E5E9_358055553);" stroke="191970" /></g><g componentSequence="11"><text x="603" y="217" text-anchor="middle" style="font-weight:bold;font-size:10px;stroke:none; fill:#333399"><tspan dy="14" x="603">Aprovação</tspan><tspan dy="14" x="603">Engenheiro</tspan></text></g><g sequence="12"><rect x="840" y="209" width="106" height="56" ry="5" rx="5" style="fill:url(#linearGradientF8FBFEEDF5FCDEEDFAD4E7F8E2E5E9_1347805775);" stroke="191970" /></g><g componentSequence="12"><text x="893" y="226" text-anchor="middle" style="font-weight:bold;font-size:10px;stroke:none; fill:#333399"><tspan dy="14" x="893">Aprovação R.H.</tspan></text></g><g sequence="13"><rect x="1100" y="195" width="106" height="84" ry="5" rx="5" style="fill:url(#linearGradientF8FBFEEDF5FCDEEDFAD4E7F8E2E5E9_926049577);" stroke="191970" /></g><g componentSequence="13"><text x="1153" y="210" text-anchor="middle" style="font-weight:bold;font-size:10px;stroke:none; fill:#333399"><tspan dy="14" x="1153">Aprovação</tspan><tspan dy="14" x="1153">Coordenação</tspan><tspan dy="14" x="1153">Engenharia</tspan></text></g><g sequence="14"><rect x="1390" y="220" width="106" height="56" ry="5" rx="5" style="fill:url(#linearGradientF8FBFEEDF5FCDEEDFAD4E7F8E2E5E9_1640960243);" stroke="191970" /></g><g componentSequence="14"><text x="1443" y="237" text-anchor="middle" style="font-weight:bold;font-size:10px;stroke:none; fill:#333399"><tspan dy="14" x="1443">Revisão do RH</tspan></text></g><g sequence="16"><ellipse cx="897" cy="427" rx="17" ry="17" stroke-width="3" style="fill:url(#linearGradientFF6666FF9696FFB6B6_1329776957);" stroke="993333" /></g><g sequence="32"><polygon points=" 430 216 460 186 490 216 460 246 430 216" style="fill:url(#linearGradientFAFBFCFFFFCC_813309184);" stroke="000000" /></g><g componentSequence="32"><text x="460" y="256" text-anchor="middle" style="font-weight:bold;font-size:10px;stroke:none; fill:#333399"><tspan dy="14" x="460">Respost</tspan><tspan dy="14" x="460">a do</tspan><tspan dy="14" x="460">Encar...</tspan></text></g><g sequence="36"><polygon points=" 730 216 760 186 790 216 760 246 730 216" style="fill:url(#linearGradientFAFBFCFFFFCC_340077835);" stroke="000000" /></g><g componentSequence="36"><text x="760" y="256" text-anchor="middle" style="font-weight:bold;font-size:10px;stroke:none; fill:#333399"><tspan dy="14" x="760">Respost</tspan><tspan dy="14" x="760">a do</tspan><tspan dy="14" x="760">Engen...</tspan></text></g><g sequence="41"><polygon points=" 1000 216 1030 186 1060 216 1030 246 1000 216" style="fill:url(#linearGradientFAFBFCFFFFCC_219475960);" stroke="000000" /></g><g componentSequence="41"><text x="1030" y="256" text-anchor="middle" style="font-weight:bold;font-size:10px;stroke:none; fill:#333399"><tspan dy="14" x="1030">Respost</tspan><tspan dy="14" x="1030">a do RH</tspan></text></g><g sequence="45"><polygon points=" 1280 216 1310 186 1340 216 1310 246 1280 216" style="fill:url(#linearGradientFAFBFCFFFFCC_1413923910);" stroke="000000" /></g><g componentSequence="45"><text x="1310" y="256" text-anchor="middle" style="font-weight:bold;font-size:10px;stroke:none; fill:#333399"><tspan dy="14" x="1310">Respost</tspan><tspan dy="14" x="1310">a do</tspan><tspan dy="14" x="1310">coo...</tspan></text></g><g sequence="61"><rect x="270" y="370" width="106" height="70" ry="5" rx="5" style="fill:url(#linearGradientF8FBFEEDF5FCDEEDFAD4E7F8E2E5E9_875839955);" stroke="191970" /></g><g componentSequence="61"><text x="323" y="385" text-anchor="middle" style="font-weight:bold;font-size:10px;stroke:none; fill:#333399"><tspan dy="14" x="323">Solicitação de</tspan><tspan dy="14" x="323">Informação</tspan></text></g><g sequence="64"><rect x="550" y="340" width="106" height="70" ry="5" rx="5" style="fill:url(#linearGradientF8FBFEEDF5FCDEEDFAD4E7F8E2E5E9_153358123);" stroke="191970" /></g><g componentSequence="64"><text x="603" y="355" text-anchor="middle" style="font-weight:bold;font-size:10px;stroke:none; fill:#333399"><tspan dy="14" x="603">Solicitação de</tspan><tspan dy="14" x="603">Informação</tspan></text></g><g sequence="67"><rect x="840" y="330" width="106" height="70" ry="5" rx="5" style="fill:url(#linearGradientF8FBFEEDF5FCDEEDFAD4E7F8E2E5E9_602233560);" stroke="191970" /></g><g componentSequence="67"><text x="893" y="345" text-anchor="middle" style="font-weight:bold;font-size:10px;stroke:none; fill:#333399"><tspan dy="14" x="893">Solicitação de</tspan><tspan dy="14" x="893">Informação</tspan></text></g><g sequence="70"><rect x="1100" y="353" width="106" height="70" ry="5" rx="5" style="fill:url(#linearGradientF8FBFEEDF5FCDEEDFAD4E7F8E2E5E9_1105448470);" stroke="191970" /></g><g componentSequence="70"><text x="1153" y="368" text-anchor="middle" style="font-weight:bold;font-size:10px;stroke:none; fill:#333399"><tspan dy="14" x="1153">Solicitação de</tspan><tspan dy="14" x="1153">Informação</tspan></text></g><g sequence="73"><rect x="1390" y="360" width="106" height="70" ry="5" rx="5" style="fill:url(#linearGradientF8FBFEEDF5FCDEEDFAD4E7F8E2E5E9_1473193248);" stroke="191970" /></g><g componentSequence="73"><text x="1443" y="375" text-anchor="middle" style="font-weight:bold;font-size:10px;stroke:none; fill:#333399"><tspan dy="14" x="1443">Solicitação de</tspan><tspan dy="14" x="1443">Informação</tspan></text></g><g sequence="76"><ellipse cx="2217" cy="253" rx="17" ry="17" stroke-width="3" style="fill:url(#linearGradientFF6666FF9696FFB6B6_2117805477);" stroke="993333" /></g><g sequence="77"><polygon points=" 1640 230 1670 200 1700 230 1670 260 1640 230" style="fill:url(#linearGradientFAFBFCFFFFCC_1996591904);" stroke="000000" /></g><g componentSequence="77"><text x="1670" y="270" text-anchor="middle" style="font-weight:bold;font-size:10px;stroke:none; fill:#333399"><tspan dy="14" x="1670">Valida</tspan><tspan dy="14" x="1670">Aprovad</tspan><tspan dy="14" x="1670">or</tspan></text></g><g sequence="79"><ellipse cx="1667" cy="397" rx="17" ry="17" stroke-width="3" style="fill:url(#linearGradientFF6666FF9696FFB6B6_684548264);" stroke="993333" /></g><g sequence="81"><rect x="1860" y="220" width="106" height="70" ry="5" rx="5" style="fill:url(#linearGradientF8FBFEEDF5FCDEEDFAD4E7F8E2E5E9_101037748);" stroke="191970" /></g><g componentSequence="81"><text x="1913" y="235" text-anchor="middle" style="font-weight:bold;font-size:10px;stroke:none; fill:#333399"><tspan dy="14" x="1913">Aprovação</tspan><tspan dy="14" x="1913">Diretoria</tspan></text></g><g sequence="83"><rect x="1850" y="360" width="106" height="70" ry="5" rx="5" style="fill:url(#linearGradientF8FBFEEDF5FCDEEDFAD4E7F8E2E5E9_557104604);" stroke="191970" /></g><g componentSequence="83"><text x="1903" y="375" text-anchor="middle" style="font-weight:bold;font-size:10px;stroke:none; fill:#333399"><tspan dy="14" x="1903">Solicitação de</tspan><tspan dy="14" x="1903">Informação</tspan></text></g><g sequence="86"><polygon points=" 2060 240 2090 210 2120 240 2090 270 2060 240" style="fill:url(#linearGradientFAFBFCFFFFCC_1515692617);" stroke="000000" /></g><g componentSequence="86"><text x="2090" y="280" text-anchor="middle" style="font-weight:bold;font-size:10px;stroke:none; fill:#333399"><tspan dy="14" x="2090">Respost</tspan><tspan dy="14" x="2090">a do</tspan><tspan dy="14" x="2090">Diretor</tspan></text></g><g sequence="89"><ellipse cx="2087" cy="404" rx="17" ry="17" stroke-width="3" style="fill:url(#linearGradientFF6666FF9696FFB6B6_425476491);" stroke="993333" /></g><rect x="130" y="40" width="105" height="55" ry="5" rx="5" style="stroke:none; fill:#FFFFE0" /><g componentSequence="7"><text x="140" y="53" text-anchor="left" style="font-weight:bold;font-size:10px;stroke:none; fill:#000000"><tspan dy="14" x="140">Start</tspan></text></g><path style="fill:none; stroke-width:1; stroke:#000000;" d="M150.0 40.0 L130.0 40.0 L130.0 95.0 L150.0 95.0" /><g componentSequence="33"><text x="413" y="241" style="font-size:10px;font-weight:none;stroke:none; fill:#333399" text-anchor="left" /></g><g componentSequence="34"><text x="530" y="241" style="font-size:10px;font-weight:none;stroke:none; fill:#333399" text-anchor="left" /></g><g componentSequence="37"><text x="703" y="241" style="font-size:10px;font-weight:none;stroke:none; fill:#333399" text-anchor="left" /></g><g componentSequence="38"><text x="825" y="241" style="font-size:10px;font-weight:none;stroke:none; fill:#333399" text-anchor="left" /></g><g componentSequence="42"><text x="983" y="237" style="font-size:10px;font-weight:none;stroke:none; fill:#333399" text-anchor="left" /></g><g componentSequence="43"><text x="1090" y="237" style="font-size:10px;font-weight:none;stroke:none; fill:#333399" text-anchor="left" /></g><g componentSequence="46"><text x="1253" y="241" style="font-size:10px;font-weight:none;stroke:none; fill:#333399" text-anchor="left" /></g><g componentSequence="47"><text x="1375" y="246" style="font-size:10px;font-weight:none;stroke:none; fill:#333399" text-anchor="left" /></g><g componentSequence="49"><text x="617" y="427" style="font-size:10px;font-weight:none;stroke:none; fill:#333399" text-anchor="left" /></g><g componentSequence="50"><text x="770" y="424" style="font-size:10px;font-weight:none;stroke:none; fill:#333399" text-anchor="left"><tspan dy="14" x="770">Finalizada e Reprovado</tspan></text></g><g componentSequence="51"><text x="1039" y="415" style="font-size:10px;font-weight:none;stroke:none; fill:#333399" text-anchor="left" /></g><g componentSequence="52"><text x="1185" y="427" style="font-size:10px;font-weight:none;stroke:none; fill:#333399" text-anchor="left" /></g><g componentSequence="56"><text x="330" y="153" style="font-size:10px;font-weight:none;stroke:none; fill:#333399" text-anchor="left" /></g><g componentSequence="62"><text x="301" y="320" style="font-size:10px;font-weight:none;stroke:none; fill:#333399" text-anchor="left" /></g><g componentSequence="63"><text x="360" y="321" style="font-size:10px;font-weight:none;stroke:none; fill:#333399" text-anchor="left" /></g><g componentSequence="65"><text x="602" y="306" style="font-size:10px;font-weight:none;stroke:none; fill:#333399" text-anchor="left" /></g><g componentSequence="66"><text x="622" y="306" style="font-size:10px;font-weight:none;stroke:none; fill:#333399" text-anchor="left" /></g><g componentSequence="68"><text x="894" y="297" style="font-size:10px;font-weight:none;stroke:none; fill:#333399" text-anchor="left" /></g><g componentSequence="69"><text x="912" y="297" style="font-size:10px;font-weight:none;stroke:none; fill:#333399" text-anchor="left" /></g><g componentSequence="71"><text x="1153" y="316" style="font-size:10px;font-weight:none;stroke:none; fill:#333399" text-anchor="left" /></g><g componentSequence="72"><text x="1172" y="316" style="font-size:10px;font-weight:none;stroke:none; fill:#333399" text-anchor="left" /></g><g componentSequence="74"><text x="1441" y="317" style="font-size:10px;font-weight:none;stroke:none; fill:#333399" text-anchor="left" /></g><g componentSequence="75"><text x="1461" y="318" style="font-size:10px;font-weight:none;stroke:none; fill:#333399" text-anchor="left" /></g><g componentSequence="78"><text x="1578" y="253" style="font-size:10px;font-weight:none;stroke:none; fill:#333399" text-anchor="left" /></g><g componentSequence="80"><text x="1678" y="348" style="font-size:10px;font-weight:none;stroke:none; fill:#333399" text-anchor="left" /></g><g componentSequence="82"><text x="1790" y="256" style="font-size:10px;font-weight:none;stroke:none; fill:#333399" text-anchor="left" /></g><g componentSequence="84"><text x="1878" y="325" style="font-size:10px;font-weight:none;stroke:none; fill:#333399" text-anchor="left" /></g><g componentSequence="85"><text x="1953" y="326" style="font-size:10px;font-weight:none;stroke:none; fill:#333399" text-anchor="left" /></g><g componentSequence="87"><text x="2023" y="262" style="font-size:10px;font-weight:none;stroke:none; fill:#333399" text-anchor="left" /></g><g componentSequence="88"><text x="2170" y="260" style="font-size:10px;font-weight:none;stroke:none; fill:#333399" text-anchor="left"><tspan dy="14" x="2170">Aprovado</tspan></text></g><g componentSequence="90"><text x="2098" y="356" style="font-size:10px;font-weight:none;stroke:none; fill:#333399" text-anchor="left"><tspan dy="14" x="2098">Reprovado</tspan></text></g><g componentSequence="29"><text x="277" y="79" style="font-size:10px;font-weight:none;stroke:none; fill:#333399" text-anchor="left" /></g><path style="fill:none; stroke:#000000;stroke-width:1" d="M317.0 103.0 L321.0 201.0" /><polygon style="fill:#000000; stroke:#000000;" points=" 326 191 321 201 316 191 321 193" /><path style="fill:none; stroke:#000000;stroke-dasharray:2" d="M235.0 74.0 L300.0 84.0" /><path style="fill:none; stroke:#000000;stroke-width:1" d="M376.0 239.0 L429.0 242.0" /><polygon style="fill:#000000; stroke:#000000;" points=" 419 236 429 242 419 246 421 242" /><path style="fill:none; stroke:#000000;stroke-width:1" d="M309.0 272.0 L291.0 320.0 L309.0 369.0" /><polygon style="fill:#000000; stroke:#000000;" points=" 310 358 309 369 301 361 306 361" /><path style="fill:none; stroke:#000000;stroke-width:1" d="M335.0 369.0 L351.0 323.0 L334.0 272.0" /><polygon style="fill:#000000; stroke:#000000;" points=" 332 283 334 272 342 280 337 280" /><path style="fill:none; stroke:#000000;stroke-width:1" d="M656.0 239.0 L729.0 242.0" /><polygon style="fill:#000000; stroke:#000000;" points=" 719 237 729 242 719 247 721 242" /><path style="fill:none; stroke:#000000;stroke-width:1" d="M597.0 272.0 L591.0 315.0 L596.0 339.0" /><polygon style="fill:#000000; stroke:#000000;" points=" 599 328 596 339 589 330 594 331" /><path style="fill:none; stroke:#000000;stroke-width:1" d="M490.0 242.0 L549.0 239.0" /><polygon style="fill:#000000; stroke:#000000;" points=" 539 235 549 239 539 245 541 239" /><path style="fill:none; stroke:#000000;stroke-width:1" d="M609.0 339.0 L613.0 316.0 L607.0 272.0" /><polygon style="fill:#000000; stroke:#000000;" points=" 603 283 607 272 613 281 608 280" /><path style="fill:none; stroke:#000000;stroke-width:1" d="M946.0 237.0 L999.0 237.0" /><polygon style="fill:#000000; stroke:#000000;" points=" 989 232 999 237 989 242 991 237" /><path style="fill:none; stroke:#000000;stroke-width:1" d="M889.0 265.0 L884.0 299.0 L888.0 329.0" /><polygon style="fill:#000000; stroke:#000000;" points=" 892 318 888 329 882 320 887 321" /><path style="fill:none; stroke:#000000;stroke-width:1" d="M790.0 242.0 L839.0 240.0" /><polygon style="fill:#000000; stroke:#000000;" points=" 829 235 839 240 829 245 831 240" /><path style="fill:none; stroke:#000000;stroke-width:1" d="M897.0 329.0 L902.0 296.0 L897.0 265.0" /><polygon style="fill:#000000; stroke:#000000;" points=" 894 276 897 265 904 274 898 273" /><path style="fill:none; stroke:#000000;stroke-width:1" d="M1206.0 239.0 L1279.0 242.0" /><polygon style="fill:#000000; stroke:#000000;" points=" 1269 237 1279 242 1269 247 1271 242" /><path style="fill:none; stroke:#000000;stroke-width:1" d="M1147.0 279.0 L1143.0 317.0 L1148.0 352.0" /><polygon style="fill:#000000; stroke:#000000;" points=" 1152 341 1148 352 1142 343 1147 344" /><path style="fill:none; stroke:#000000;stroke-width:1" d="M1060.0 237.0 L1099.0 237.0" /><polygon style="fill:#000000; stroke:#000000;" points=" 1089 232 1099 237 1089 242 1091 237" /><path style="fill:none; stroke:#000000;stroke-width:1" d="M1158.0 352.0 L1163.0 320.0 L1158.0 279.0" /><polygon style="fill:#000000; stroke:#000000;" points=" 1154 290 1158 279 1164 288 1159 287" /><path style="fill:none; stroke:#000000;stroke-width:1" d="M1438.0 276.0 L1431.0 316.0 L1437.0 359.0" /><polygon style="fill:#000000; stroke:#000000;" points=" 1441 348 1437 359 1431 350 1436 351" /><path style="fill:none; stroke:#000000;stroke-width:1" d="M1496.0 250.0 L1639.0 256.0" /><polygon style="fill:#000000; stroke:#000000;" points=" 1629 251 1639 256 1629 261 1631 256" /><path style="fill:none; stroke:#000000;stroke-width:1" d="M1340.0 245.0 L1389.0 246.0" /><polygon style="fill:#000000; stroke:#000000;" points=" 1379 241 1389 246 1379 251 1381 246" /><path style="fill:none; stroke:#000000;stroke-width:1" d="M1447.0 359.0 L1452.0 323.0 L1446.0 276.0" /><polygon style="fill:#000000; stroke:#000000;" points=" 1442 287 1446 276 1452 285 1447 284" /><path style="fill:none; stroke:#000000;stroke-width:1" d="M459.0 302.0 L459.0 427.0 L879.0 427.0" /><polygon style="fill:#000000; stroke:#000000;" points=" 869 422 879 427 869 432 871 427" /><path style="fill:none; stroke:#000000;stroke-width:1" d="M760.0 302.0 L760.0 427.0 L879.0 427.0" /><polygon style="fill:#000000; stroke:#000000;" points=" 869 422 879 427 869 432 871 427" /><path style="fill:none; stroke:#000000;stroke-width:1" d="M1029.0 288.0 L1029.0 427.0 L915.0 427.0" /><polygon style="fill:#000000; stroke:#000000;" points=" 925 432 915 427 925 422 923 427" /><path style="fill:none; stroke:#000000;stroke-width:1" d="M1310.0 302.0 L1310.0 427.0 L915.0 427.0" /><polygon style="fill:#000000; stroke:#000000;" points=" 925 432 915 427 925 422 923 427" /><path style="fill:none; stroke:#000000;stroke-width:1" d="M2120.0 264.0 L2200.0 255.0" /><polygon style="fill:#000000; stroke:#000000;" points=" 2190 251 2200 255 2191 261 2192 256" /><path style="fill:none; stroke:#000000;stroke-width:1" d="M1668.0 316.0 L1667.0 380.0" /><polygon style="fill:#000000; stroke:#000000;" points=" 1672 370 1667 380 1662 370 1667 372" /><path style="fill:none; stroke:#000000;stroke-width:1" d="M1700.0 257.0 L1859.0 255.0" /><polygon style="fill:#000000; stroke:#000000;" points=" 1849 250 1859 255 1849 260 1851 255" /><path style="fill:none; stroke:#000000;stroke-width:1" d="M1890.0 290.0 L1863.0 333.0 L1880.0 359.0" /><polygon style="fill:#000000; stroke:#000000;" points=" 1879 348 1880 359 1870 353 1876 352" /><path style="fill:none; stroke:#000000;stroke-width:1" d="M1966.0 259.0 L2059.0 265.0" /><polygon style="fill:#000000; stroke:#000000;" points=" 2049 259 2059 265 2049 269 2051 264" /><path style="fill:none; stroke:#000000;stroke-width:1" d="M1929.0 359.0 L1947.0 335.0 L1928.0 290.0" /><polygon style="fill:#000000; stroke:#000000;" points=" 1927 301 1928 290 1936 297 1931 297" /><path style="fill:none; stroke:#000000;stroke-width:1" d="M2088.0 326.0 L2087.0 387.0" /><polygon style="fill:#000000; stroke:#000000;" points=" 2092 377 2087 387 2082 377 2087 379" /><defs><linearGradient xmlns:xlink="http://www.w3.org/1999/xlink" xlink:href="#linearGradient66FF6696FF96B6FFB6" id="linearGradient66FF6696FF96B6FFB6_531568113" x1="0" y1="69.0" x2="0" y2="104.0" gradientUnits="userSpaceOnUse" xlink:type="simple" xlink:actuate="onLoad" xlink:show="other" /><linearGradient id="linearGradient66FF6696FF96B6FFB6"><stop style="stop-color:#66FF66;stop-opacity:1;" offset="0.0" id="stop66FF66" /><stop style="stop-color:#96FF96;stop-opacity:1;" offset="0.5" id="stop96FF96" /><stop style="stop-color:#B6FFB6;stop-opacity:1;" offset="1.0" id="stopB6FFB6" /></linearGradient><linearGradient xmlns:xlink="http://www.w3.org/1999/xlink" xlink:href="#linearGradientF8FBFEEDF5FCDEEDFAD4E7F8E2E5E9" id="linearGradientF8FBFEEDF5FCDEEDFAD4E7F8E2E5E9_292087924" x1="0" y1="202.0" x2="0" y2="308.0" gradientUnits="userSpaceOnUse" xlink:type="simple" xlink:actuate="onLoad" xlink:show="other" /><linearGradient id="linearGradientF8FBFEEDF5FCDEEDFAD4E7F8E2E5E9"><stop style="stop-color:#F8FBFE;stop-opacity:1;" offset="0.0" id="stopF8FBFE" /><stop style="stop-color:#EDF5FC;stop-opacity:1;" offset="0.25" id="stopEDF5FC" /><stop style="stop-color:#DEEDFA;stop-opacity:1;" offset="0.5" id="stopDEEDFA" /><stop style="stop-color:#D4E7F8;stop-opacity:1;" offset="0.75" id="stopD4E7F8" /><stop style="stop-color:#E2E5E9;stop-opacity:1;" offset="1.0" id="stopE2E5E9" /></linearGradient><linearGradient xmlns:xlink="http://www.w3.org/1999/xlink" xlink:href="#linearGradientF8FBFEEDF5FCDEEDFAD4E7F8E2E5E9" id="linearGradientF8FBFEEDF5FCDEEDFAD4E7F8E2E5E9_358055553" x1="0" y1="202.0" x2="0" y2="308.0" gradientUnits="userSpaceOnUse" xlink:type="simple" xlink:actuate="onLoad" xlink:show="other" /><linearGradient xmlns:xlink="http://www.w3.org/1999/xlink" xlink:href="#linearGradientF8FBFEEDF5FCDEEDFAD4E7F8E2E5E9" id="linearGradientF8FBFEEDF5FCDEEDFAD4E7F8E2E5E9_1347805775" x1="0" y1="209.0" x2="0" y2="315.0" gradientUnits="userSpaceOnUse" xlink:type="simple" xlink:actuate="onLoad" xlink:show="other" /><linearGradient xmlns:xlink="http://www.w3.org/1999/xlink" xlink:href="#linearGradientF8FBFEEDF5FCDEEDFAD4E7F8E2E5E9" id="linearGradientF8FBFEEDF5FCDEEDFAD4E7F8E2E5E9_926049577" x1="0" y1="195.0" x2="0" y2="301.0" gradientUnits="userSpaceOnUse" xlink:type="simple" xlink:actuate="onLoad" xlink:show="other" /><linearGradient xmlns:xlink="http://www.w3.org/1999/xlink" xlink:href="#linearGradientF8FBFEEDF5FCDEEDFAD4E7F8E2E5E9" id="linearGradientF8FBFEEDF5FCDEEDFAD4E7F8E2E5E9_1640960243" x1="0" y1="220.0" x2="0" y2="326.0" gradientUnits="userSpaceOnUse" xlink:type="simple" xlink:actuate="onLoad" xlink:show="other" /><linearGradient xmlns:xlink="http://www.w3.org/1999/xlink" xlink:href="#linearGradientFF6666FF9696FFB6B6" id="linearGradientFF6666FF9696FFB6B6_1329776957" x1="0" y1="410.0" x2="0" y2="445.0" gradientUnits="userSpaceOnUse" xlink:type="simple" xlink:actuate="onLoad" xlink:show="other" /><linearGradient id="linearGradientFF6666FF9696FFB6B6"><stop style="stop-color:#FF6666;stop-opacity:1;" offset="0.0" id="stopFF6666" /><stop style="stop-color:#FF9696;stop-opacity:1;" offset="0.5" id="stopFF9696" /><stop style="stop-color:#FFB6B6;stop-opacity:1;" offset="1.0" id="stopFFB6B6" /></linearGradient><linearGradient xmlns:xlink="http://www.w3.org/1999/xlink" xlink:href="#linearGradientFAFBFCFFFFCC" id="linearGradientFAFBFCFFFFCC_813309184" x1="0" y1="186.0" x2="0" y2="246.0" gradientUnits="userSpaceOnUse" xlink:type="simple" xlink:actuate="onLoad" xlink:show="other" /><linearGradient id="linearGradientFAFBFCFFFFCC"><stop style="stop-color:#FAFBFC;stop-opacity:1;" offset="0.0" id="stopFAFBFC" /><stop style="stop-color:#FFFFCC;stop-opacity:1;" offset="1.0" id="stopFFFFCC" /></linearGradient><linearGradient xmlns:xlink="http://www.w3.org/1999/xlink" xlink:href="#linearGradientFAFBFCFFFFCC" id="linearGradientFAFBFCFFFFCC_340077835" x1="0" y1="186.0" x2="0" y2="246.0" gradientUnits="userSpaceOnUse" xlink:type="simple" xlink:actuate="onLoad" xlink:show="other" /><linearGradient xmlns:xlink="http://www.w3.org/1999/xlink" xlink:href="#linearGradientFAFBFCFFFFCC" id="linearGradientFAFBFCFFFFCC_219475960" x1="0" y1="186.0" x2="0" y2="246.0" gradientUnits="userSpaceOnUse" xlink:type="simple" xlink:actuate="onLoad" xlink:show="other" /><linearGradient xmlns:xlink="http://www.w3.org/1999/xlink" xlink:href="#linearGradientFAFBFCFFFFCC" id="linearGradientFAFBFCFFFFCC_1413923910" x1="0" y1="186.0" x2="0" y2="246.0" gradientUnits="userSpaceOnUse" xlink:type="simple" xlink:actuate="onLoad" xlink:show="other" /><linearGradient xmlns:xlink="http://www.w3.org/1999/xlink" xlink:href="#linearGradientF8FBFEEDF5FCDEEDFAD4E7F8E2E5E9" id="linearGradientF8FBFEEDF5FCDEEDFAD4E7F8E2E5E9_875839955" x1="0" y1="370.0" x2="0" y2="476.0" gradientUnits="userSpaceOnUse" xlink:type="simple" xlink:actuate="onLoad" xlink:show="other" /><linearGradient xmlns:xlink="http://www.w3.org/1999/xlink" xlink:href="#linearGradientF8FBFEEDF5FCDEEDFAD4E7F8E2E5E9" id="linearGradientF8FBFEEDF5FCDEEDFAD4E7F8E2E5E9_153358123" x1="0" y1="340.0" x2="0" y2="446.0" gradientUnits="userSpaceOnUse" xlink:type="simple" xlink:actuate="onLoad" xlink:show="other" /><linearGradient xmlns:xlink="http://www.w3.org/1999/xlink" xlink:href="#linearGradientF8FBFEEDF5FCDEEDFAD4E7F8E2E5E9" id="linearGradientF8FBFEEDF5FCDEEDFAD4E7F8E2E5E9_602233560" x1="0" y1="330.0" x2="0" y2="436.0" gradientUnits="userSpaceOnUse" xlink:type="simple" xlink:actuate="onLoad" xlink:show="other" /><linearGradient xmlns:xlink="http://www.w3.org/1999/xlink" xlink:href="#linearGradientF8FBFEEDF5FCDEEDFAD4E7F8E2E5E9" id="linearGradientF8FBFEEDF5FCDEEDFAD4E7F8E2E5E9_1105448470" x1="0" y1="353.0" x2="0" y2="459.0" gradientUnits="userSpaceOnUse" xlink:type="simple" xlink:actuate="onLoad" xlink:show="other" /><linearGradient xmlns:xlink="http://www.w3.org/1999/xlink" xlink:href="#linearGradientF8FBFEEDF5FCDEEDFAD4E7F8E2E5E9" id="linearGradientF8FBFEEDF5FCDEEDFAD4E7F8E2E5E9_1473193248" x1="0" y1="360.0" x2="0" y2="466.0" gradientUnits="userSpaceOnUse" xlink:type="simple" xlink:actuate="onLoad" xlink:show="other" /><linearGradient xmlns:xlink="http://www.w3.org/1999/xlink" xlink:href="#linearGradientFF6666FF9696FFB6B6" id="linearGradientFF6666FF9696FFB6B6_2117805477" x1="0" y1="236.0" x2="0" y2="271.0" gradientUnits="userSpaceOnUse" xlink:type="simple" xlink:actuate="onLoad" xlink:show="other" /><linearGradient xmlns:xlink="http://www.w3.org/1999/xlink" xlink:href="#linearGradientFAFBFCFFFFCC" id="linearGradientFAFBFCFFFFCC_1996591904" x1="0" y1="200.0" x2="0" y2="260.0" gradientUnits="userSpaceOnUse" xlink:type="simple" xlink:actuate="onLoad" xlink:show="other" /><linearGradient xmlns:xlink="http://www.w3.org/1999/xlink" xlink:href="#linearGradientFF6666FF9696FFB6B6" id="linearGradientFF6666FF9696FFB6B6_684548264" x1="0" y1="380.0" x2="0" y2="415.0" gradientUnits="userSpaceOnUse" xlink:type="simple" xlink:actuate="onLoad" xlink:show="other" /><linearGradient xmlns:xlink="http://www.w3.org/1999/xlink" xlink:href="#linearGradientF8FBFEEDF5FCDEEDFAD4E7F8E2E5E9" id="linearGradientF8FBFEEDF5FCDEEDFAD4E7F8E2E5E9_101037748" x1="0" y1="220.0" x2="0" y2="326.0" gradientUnits="userSpaceOnUse" xlink:type="simple" xlink:actuate="onLoad" xlink:show="other" /><linearGradient xmlns:xlink="http://www.w3.org/1999/xlink" xlink:href="#linearGradientF8FBFEEDF5FCDEEDFAD4E7F8E2E5E9" id="linearGradientF8FBFEEDF5FCDEEDFAD4E7F8E2E5E9_557104604" x1="0" y1="360.0" x2="0" y2="466.0" gradientUnits="userSpaceOnUse" xlink:type="simple" xlink:actuate="onLoad" xlink:show="other" /><linearGradient xmlns:xlink="http://www.w3.org/1999/xlink" xlink:href="#linearGradientFAFBFCFFFFCC" id="linearGradientFAFBFCFFFFCC_1515692617" x1="0" y1="210.0" x2="0" y2="270.0" gradientUnits="userSpaceOnUse" xlink:type="simple" xlink:actuate="onLoad" xlink:show="other" /><linearGradient xmlns:xlink="http://www.w3.org/1999/xlink" xlink:href="#linearGradientFF6666FF9696FFB6B6" id="linearGradientFF6666FF9696FFB6B6_425476491" x1="0" y1="387.0" x2="0" y2="422.0" gradientUnits="userSpaceOnUse" xlink:type="simple" xlink:actuate="onLoad" xlink:show="other" /></defs></svg>
